<svg xmlns="http://www.w3.org/2000/svg" xmlns:xlink="http://www.w3.org/1999/xlink" xmlns:lucid="lucid" width="2279" height="1204"><g transform="translate(-401 -1912)" lucid:page-tab-id="0_0"><path d="M-500 0h3500v3000H-500z" fill="#f2f3f5"/><path d="M1690.18 2343.8c0 70.52-82.05 127.7-183.26 127.7-101.2 0-183.25-57.18-183.25-127.7 0-70.55 82.04-127.74 183.25-127.74 101.2 0 183.26 57.2 183.26 127.73z" stroke="#000" stroke-width="2" fill="#fff"/><use xlink:href="#a" transform="matrix(1,0,0,1,1341.9931498207518,2228.835489026436) translate(106.67426215277777 123.57638888888889)"/><path d="M451.1 2212.8a6 6 0 0 1 6-6h350.7a6 6 0 0 1 6 6v261.98a6 6 0 0 1-6 6H457.1a6 6 0 0 1-6-6z" stroke="#000" stroke-width="2" fill="#fff"/><use xlink:href="#b" transform="matrix(1,0,0,1,469.24473432779286,2220.4933912474544) translate(120.7421875 133.25)"/><path d="M816.3 2343.8h488.88" stroke="#3a414a" stroke-width="3" fill="none"/><path d="M816.34 2345.26h-1.54v-2.95h1.54z" stroke="#3a414a" stroke-width=".05" fill="#3a414a"/><path d="M1319.67 2343.8l-13 7.5v-15z" stroke="#3a414a" stroke-width="3" fill="#3a414a"/><path d="M2243.92 2763.3a6 6 0 0 1 6-6h350.7a6 6 0 0 1 6 6v155.98a6 6 0 0 1-6 6h-350.7a6 6 0 0 1-6-6z" stroke="#000" stroke-width="2" fill="#fff"/><use xlink:href="#c" transform="matrix(1,0,0,1,2262.058749180092,2765.693391247454) translate(24.15625 86.9375)"/><use xlink:href="#d" transform="matrix(1,0,0,1,2262.058749180092,2765.693391247454) translate(125.998046875 86.9375)"/><use xlink:href="#e" transform="matrix(1,0,0,1,2262.058749180092,2765.693391247454) translate(164.388671875 86.9375)"/><path d="M1576.57 2464.48v393.92a24 24 0 0 0 24 24h624.86" stroke="#3a414a" stroke-width="3" fill="none"/><path d="M1578.04 2464.5h-2.95v-1.1l.2-.04 2.74-.83z" stroke="#3a414a" stroke-width=".05" fill="#3a414a"/><path d="M2239.92 2882.4l-13 7.5v-15z" stroke="#3a414a" stroke-width="3" fill="#3a414a"/><path d="M816.3 2464.8h467.56a24 24 0 0 0 24-24v-9.5a22.5 22.5 0 0 1 22.5-22.5" stroke="#3a414a" stroke-width="3" fill="none"/><path d="M816.34 2466.28h-1.54v-2.96h1.54z" stroke="#3a414a" stroke-width=".05" fill="#3a414a"/><path d="M1344.86 2408.8l-13 7.5v-15z" stroke="#3a414a" stroke-width="3" fill="#3a414a"/><path d="M816.3 2238.8h471.67a19.95 19.95 0 0 1 19.96 19.95 19.95 19.95 0 0 0 19.95 19.96h2.56" stroke="#3a414a" stroke-width="3" fill="none"/><path d="M816.34 2240.28h-1.54v-2.96h1.54z" stroke="#3a414a" stroke-width=".05" fill="#3a414a"/><path d="M1344.93 2278.7l-13 7.5v-15z" stroke="#3a414a" stroke-width="3" fill="#3a414a"/><path d="M1401.5 2236.73V2046.4a24 24 0 0 0-24-24H707.6a24 24 0 0 0-24 24v141.9" stroke="#3a414a" stroke-width="3" fill="none"/><path d="M1402.98 2237.5l-2.95 1.46v-2.27h2.95z" stroke="#3a414a" stroke-width=".05" fill="#3a414a"/><path d="M683.6 2202.8l-7.5-13h15z" stroke="#3a414a" stroke-width="3" fill="#3a414a"/><path d="M889.55 2093.85a6 6 0 0 1 6-6h341.15a6 6 0 0 1 6 6v43.94a6 6 0 0 1-6 6H895.55a6 6 0 0 1-6-6z" fill="none"/><use xlink:href="#f" transform="matrix(1,0,0,1,894.5505109544998,2092.852469879636) translate(0 31.89214409722222)"/><use xlink:href="#g" transform="matrix(1,0,0,1,894.5505109544998,2092.852469879636) translate(88.4201388888889 31.89214409722222)"/><use xlink:href="#h" transform="matrix(1,0,0,1,894.5505109544998,2092.852469879636) translate(124.17968750000001 31.89214409722222)"/><path d="M761.6 2204.3v-41.9a24 24 0 0 1 24-24h553.78a24 24 0 0 1 24 24v83.2" stroke="#3a414a" stroke-width="3" fill="none"/><path d="M763.08 2205.8h-2.96v-1.54h2.96z" stroke="#3a414a" stroke-width=".05" fill="#3a414a"/><path d="M1363.38 2260.1l-7.5-13h15z" stroke="#3a414a" stroke-width="3" fill="#3a414a"/><path d="M889.93 1941.33a6 6 0 0 1 6-6h380.84a6 6 0 0 1 6 6v104.57a6 6 0 0 1-6 6H895.93a6 6 0 0 1-6-6z" fill="none"/><use xlink:href="#i" transform="matrix(1,0,0,1,894.9344314283122,1940.329989682816) translate(0 62.39214409722222)"/><use xlink:href="#g" transform="matrix(1,0,0,1,894.9344314283122,1940.329989682816) translate(138.10872395833334 62.39214409722222)"/><use xlink:href="#j" transform="matrix(1,0,0,1,894.9344314283122,1940.329989682816) translate(173.86827256944446 62.39214409722222)"/><path d="M1383.22 2440.66v104.54a24 24 0 0 1-24 24H769.2a24 24 0 0 1-24-24v-45.93" stroke="#3a414a" stroke-width="3" fill="none"/><path d="M1384.7 2440.1v.6h-2.95v-2.47z" stroke="#3a414a" stroke-width=".05" fill="#3a414a"/><path d="M745.2 2484.78l7.5 13h-15z" stroke="#3a414a" stroke-width="3" fill="#3a414a"/><path d="M829.48 2411.7a6 6 0 0 1 6-6h441.15a6 6 0 0 1 6 6v63.08a6 6 0 0 1-6 6H835.48a6 6 0 0 1-6-6z" fill="none"/><use xlink:href="#k" transform="matrix(1,0,0,1,834.4809932434174,2410.697969972475) translate(0 41.89214409722222)"/><use xlink:href="#l" transform="matrix(1,0,0,1,834.4809932434174,2410.697969972475) translate(151.60807291666669 41.89214409722222)"/><use xlink:href="#m" transform="matrix(1,0,0,1,834.4809932434174,2410.697969972475) translate(166.88585069444446 41.89214409722222)"/><use xlink:href="#n" transform="matrix(1,0,0,1,834.4809932434174,2410.697969972475) translate(304.9945746527778 41.89214409722222)"/><use xlink:href="#o" transform="matrix(1,0,0,1,834.4809932434174,2410.697969972475) translate(340.7541232638889 41.89214409722222)"/><path d="M694.8 2484.3v142.5a24 24 0 0 0 24 24h684.82a24 24 0 0 0 24-24v-149.34M694.8 2484.34v-1.54" stroke="#3a414a" stroke-width="3" fill="none"/><path d="M1427.62 2462.97l7.5 13h-15z" stroke="#3a414a" stroke-width="3" fill="#3a414a"/><path d="M2243.92 2212.8a6 6 0 0 1 6-6h350.7a6 6 0 0 1 6 6v261.98a6 6 0 0 1-6 6h-350.7a6 6 0 0 1-6-6z" stroke="#000" stroke-width="2" fill="#fff"/><use xlink:href="#p" transform="matrix(1,0,0,1,2262.058749180092,2220.4933912474544) translate(104.15576171875 133.25)"/><path d="M1831.85 2181.23a6 6 0 0 1 6-6h356.4a6 6 0 0 1 6 6v63.07a6 6 0 0 1-6 6h-356.4a6 6 0 0 1-6-6z" fill="none"/><use xlink:href="#f" transform="matrix(1,0,0,1,1836.8461611599082,2180.2256423171075) translate(0 41.89214409722222)"/><use xlink:href="#g" transform="matrix(1,0,0,1,1836.8461611599082,2180.2256423171075) translate(88.4201388888889 41.89214409722222)"/><use xlink:href="#h" transform="matrix(1,0,0,1,1836.8461611599082,2180.2256423171075) translate(124.17968750000001 41.89214409722222)"/><path d="M1671.3 2283.54h16.24a22.27 22.27 0 0 0 22.27-22.27 22.27 22.27 0 0 1 22.28-22.27h493.35" stroke="#3a414a" stroke-width="3" fill="none"/><path d="M1671.35 2285.02h-.47l-1.07-1.48-1.16-1.47h2.7z" stroke="#3a414a" stroke-width=".05" fill="#3a414a"/><path d="M2239.92 2239l-13 7.5v-15z" stroke="#3a414a" stroke-width="3" fill="#3a414a"/><path d="M2241.42 2343.8h-532.75" stroke="#3a414a" stroke-width="3" fill="none"/><path d="M2242.92 2345.26h-1.53v-2.95h1.52z" stroke="#3a414a" stroke-width=".05" fill="#3a414a"/><path d="M1694.18 2343.8l13-7.5v15z" stroke="#3a414a" stroke-width="3" fill="#3a414a"/><path d="M1790.8 2292.07a6 6 0 0 1 6-6h506.43a6 6 0 0 1 6 6v55.06a6 6 0 0 1-6 6H1796.8a6 6 0 0 1-6-6z" fill="none"/><use xlink:href="#q" transform="matrix(1,0,0,1,1795.812715338151,2291.0731047546947) translate(0 37.89214409722222)"/><use xlink:href="#r" transform="matrix(1,0,0,1,1795.812715338151,2291.0731047546947) translate(101.88368055555556 37.89214409722222)"/><path d="M2241.42 2441.5h-496.58a24 24 0 0 1-24-24v-8.6a22.5 22.5 0 0 0-22.5-22.5" stroke="#3a414a" stroke-width="3" fill="none"/><path d="M2242.92 2442.97h-1.53v-2.94h1.52z" stroke="#3a414a" stroke-width=".05" fill="#3a414a"/><path d="M1683.85 2386.4l13-7.5v15z" stroke="#3a414a" stroke-width="3" fill="#3a414a"/><path d="M2296.5 2480.5v24.5a24 24 0 0 1-24 24h-594.32a24 24 0 0 1-24-24v-66.36M2296.5 2480.54V2479" stroke="#3a414a" stroke-width="3" fill="none"/><path d="M1654.18 2424.15l7.5 13h-15z" stroke="#3a414a" stroke-width="3" fill="#3a414a"/><path d="M1743.97 2827.3a6 6 0 0 1 6-6h356.4a6 6 0 0 1 6 6v63.07a6 6 0 0 1-6 6h-356.4a6 6 0 0 1-6-6z" fill="none"/><use xlink:href="#s" transform="matrix(1,0,0,1,1748.9661129168173,2826.294254976839) translate(0 41.89214409722222)"/><use xlink:href="#g" transform="matrix(1,0,0,1,1748.9661129168173,2826.294254976839) translate(119.48893229166667 41.89214409722222)"/><use xlink:href="#t" transform="matrix(1,0,0,1,1748.9661129168173,2826.294254976839) translate(155.24848090277777 41.89214409722222)"/><path d="M1750.8 2477.5a6 6 0 0 1 6-6h356.4a6 6 0 0 1 6 6v63.1a6 6 0 0 1-6 6h-356.4a6 6 0 0 1-6-6z" fill="none"/><use xlink:href="#u" transform="matrix(1,0,0,1,1755.7846016238145,2476.50798285694) translate(0 41.89214409722222)"/><use xlink:href="#v" transform="matrix(1,0,0,1,1755.7846016238145,2476.50798285694) translate(126.30425347222221 41.89214409722222)"/><use xlink:href="#w" transform="matrix(1,0,0,1,1755.7846016238145,2476.50798285694) translate(162.49348958333331 41.89214409722222)"/><path d="M869.64 2516.03a6 6 0 0 1 6-6h380.97a6 6 0 0 1 6 6v63.08a6 6 0 0 1-6 6H875.65a6 6 0 0 1-6-6z" fill="none"/><g><use xlink:href="#x" transform="matrix(1,0,0,1,874.6381946247824,2515.0291074513984) translate(0 41.89214409722222)"/><use xlink:href="#y" transform="matrix(1,0,0,1,874.6381946247824,2515.0291074513984) translate(113.33007812500001 41.89214409722222)"/><use xlink:href="#z" transform="matrix(1,0,0,1,874.6381946247824,2515.0291074513984) translate(149.08962673611114 41.89214409722222)"/><use xlink:href="#A" transform="matrix(1,0,0,1,874.6381946247824,2515.0291074513984) translate(283.8324652777778 41.89214409722222)"/></g><path d="M889.66 2591.1a6 6 0 0 1 6-6h380.97a6 6 0 0 1 6 6v63.1a6 6 0 0 1-6 6H895.66a6 6 0 0 1-6-6z" fill="none"/><g><use xlink:href="#q" transform="matrix(1,0,0,1,894.6563605839824,2590.108117868065) translate(0 41.89214409722222)"/><use xlink:href="#r" transform="matrix(1,0,0,1,894.6563605839824,2590.108117868065) translate(101.88368055555556 41.89214409722222)"/></g><path d="M1766.26 2386.8a6 6 0 0 1 6-6h380.97a6 6 0 0 1 6 6v63.08a6 6 0 0 1-6 6h-380.97a6 6 0 0 1-6-6z" fill="none"/><g><use xlink:href="#x" transform="matrix(1,0,0,1,1771.2592395343795,2385.7999183228294) translate(0 41.89214409722222)"/><use xlink:href="#y" transform="matrix(1,0,0,1,1771.2592395343795,2385.7999183228294) translate(113.33007812500001 41.89214409722222)"/><use xlink:href="#z" transform="matrix(1,0,0,1,1771.2592395343795,2385.7999183228294) translate(149.08962673611114 41.89214409722222)"/><use xlink:href="#A" transform="matrix(1,0,0,1,1771.2592395343795,2385.7999183228294) translate(283.8324652777778 41.89214409722222)"/></g><path d="M2241.42 2798.4h-593.3a24 24 0 0 1-24-24v-313.78" stroke="#3a414a" stroke-width="3" fill="none"/><path d="M2242.92 2799.88h-1.53v-2.95h1.52z" stroke="#3a414a" stroke-width=".05" fill="#3a414a"/><path d="M1624.1 2446.13l7.5 13h-15z" stroke="#3a414a" stroke-width="3" fill="#3a414a"/><path d="M1759.4 2740.86a6 6 0 0 1 6-6h356.4a6 6 0 0 1 6 6v63.08a6 6 0 0 1-6 6h-356.4a6 6 0 0 1-6-6z" fill="none"/><g><use xlink:href="#B" transform="matrix(1,0,0,1,1764.391670428555,2739.8604947916665) translate(0 41.89214409722222)"/><use xlink:href="#C" transform="matrix(1,0,0,1,1764.391670428555,2739.8604947916665) translate(161.07313368055557 41.89214409722222)"/><use xlink:href="#D" transform="matrix(1,0,0,1,1764.391670428555,2739.8604947916665) translate(197.26236979166669 41.89214409722222)"/></g><path d="M879.48 2190.8a6 6 0 0 1 6-6h341.15a6 6 0 0 1 6 6v43.94a6 6 0 0 1-6 6H885.48a6 6 0 0 1-6-6z" fill="none"/><g><use xlink:href="#E" transform="matrix(1,0,0,1,884.4809932434174,2189.794254976839) translate(0 31.89214409722222)"/><use xlink:href="#C" transform="matrix(1,0,0,1,884.4809932434174,2189.794254976839) translate(111.36067708333334 31.89214409722222)"/><use xlink:href="#F" transform="matrix(1,0,0,1,884.4809932434174,2189.794254976839) translate(147.54991319444446 31.89214409722222)"/></g><path d="M859.64 2267.3a6 6 0 0 1 6-6h380.83a6 6 0 0 1 6 6v104.6a6 6 0 0 1-6 6H865.64a6 6 0 0 1-6-6z" fill="none"/><g><use xlink:href="#G" transform="matrix(1,0,0,1,864.6381946247823,2266.3144010416668) translate(0 62.39214409722222)"/><use xlink:href="#C" transform="matrix(1,0,0,1,864.6381946247823,2266.3144010416668) translate(126.56684027777779 62.39214409722222)"/><use xlink:href="#D" transform="matrix(1,0,0,1,864.6381946247823,2266.3144010416668) translate(162.7560763888889 62.39214409722222)"/></g><defs><path d="M657 26c-323 0-524-166-541-416h195c15 169 171 246 346 246 202 0 356-106 356-265 5-203-294-238-475-293-239-73-380-191-380-389 0-252 224-419 512-419 294 0 499 171 508 396H992c-17-145-151-228-328-228-193 0-321 102-321 242 0 156 175 211 284 241l149 41c160 44 422 134 422 412 0 244-197 432-541 432" id="H"/><path d="M158 0v-1118h180V0H158zm91-1301c-68 0-125-53-125-119s57-119 125-119c69 0 126 53 126 119s-57 119-126 119" id="I"/><path d="M538 24C308 24 148-78 108-271l171-41c32 123 123 178 257 178 156 0 256-77 256-169 0-77-54-128-164-154l-186-44c-203-48-300-148-300-305 0-192 176-326 414-326 230 0 351 112 402 269l-163 42c-31-80-94-158-238-158-133 0-233 69-233 162 0 83 57 129 188 160l169 40c203 48 298 149 298 302 0 196-179 339-441 339" id="J"/><path d="M598-1118v154H368v674c0 100 37 144 132 144 23 0 62-6 92-12L629-6c-37 13-88 20-134 20-193 0-307-107-307-290v-688H20v-154h168v-266h180v266h230" id="K"/><path d="M628 24c-324 0-524-230-524-574 0-343 198-582 503-582 237 0 487 146 487 559v75H286c9 234 145 362 343 362 132 0 231-58 273-172l174 48C1024-91 857 24 628 24zM287-650h624c-17-190-120-322-304-322-192 0-309 151-320 322" id="L"/><path d="M158 0v-1118h175l1 205c55-151 181-225 313-225 147 0 245 90 285 228 53-141 190-228 352-228 194 0 352 125 352 384V0h-181v-749c0-161-105-225-225-225-151 0-243 103-243 244V0H807v-767c0-124-93-207-219-207-131 0-250 92-250 270V0H158" id="M"/><path d="M471 26C259 26 90-98 90-318c0-256 228-303 435-329 202-27 287-16 287-108 0-139-79-219-234-219-161 0-248 86-283 164l-173-57c86-203 278-265 451-265 150 0 419 46 419 395V0H815v-152h-12C765-73 660 26 471 26zm31-159c199 0 310-134 310-271v-155c-30 35-226 55-295 64-131 17-246 59-246 186 0 116 97 176 231 176" id="N"/><g id="a"><use transform="matrix(0.015190972222222224,0,0,0.015190972222222224,0,0)" xlink:href="#H"/><use transform="matrix(0.015190972222222224,0,0,0.015190972222222224,19.960937500000004,0)" xlink:href="#I"/><use transform="matrix(0.015190972222222224,0,0,0.015190972222222224,27.49565972222223,0)" xlink:href="#J"/><use transform="matrix(0.015190972222222224,0,0,0.015190972222222224,43.91710069444446,0)" xlink:href="#K"/><use transform="matrix(0.015190972222222224,0,0,0.015190972222222224,53.7912326388889,0)" xlink:href="#L"/><use transform="matrix(0.015190972222222224,0,0,0.015190972222222224,71.92925347222223,0)" xlink:href="#M"/><use transform="matrix(0.015190972222222224,0,0,0.015190972222222224,99.1818576388889,0)" xlink:href="#N"/></g><path d="M783 20c-382 0-661-292-661-764 0-473 279-766 661-766 302 0 548 182 601 489h-190c-42-204-217-313-411-313-268 0-476 208-476 590 0 381 209 588 476 588 195 0 369-110 411-313h190c-52 303-296 489-601 489" id="O"/><path d="M338-1490V0H158v-1490h180" id="P"/><path d="M338-670V0H158v-1118h173l1 207c72-158 192-221 342-221 226 0 378 139 378 422V0H872v-695c0-172-96-275-252-275-161 0-282 109-282 300" id="Q"/><g id="b"><use transform="matrix(0.0126953125,0,0,0.0126953125,0,0)" xlink:href="#O"/><use transform="matrix(0.0126953125,0,0,0.0126953125,18.9921875,0)" xlink:href="#P"/><use transform="matrix(0.0126953125,0,0,0.0126953125,25.2890625,0)" xlink:href="#I"/><use transform="matrix(0.0126953125,0,0,0.0126953125,31.5859375,0)" xlink:href="#L"/><use transform="matrix(0.0126953125,0,0,0.0126953125,46.744140625,0)" xlink:href="#Q"/><use transform="matrix(0.0126953125,0,0,0.0126953125,62.10546875,0)" xlink:href="#K"/><use transform="matrix(0.0126953125,0,0,0.0126953125,70.357421875,0)" xlink:href="#L"/></g><g id="c"><use transform="matrix(0.0126953125,0,0,0.0126953125,0,0)" xlink:href="#J"/><use transform="matrix(0.0126953125,0,0,0.0126953125,13.7236328125,0)" xlink:href="#I"/><use transform="matrix(0.0126953125,0,0,0.0126953125,20.0205078125,0)" xlink:href="#J"/><use transform="matrix(0.0126953125,0,0,0.0126953125,33.744140625,0)" xlink:href="#K"/><use transform="matrix(0.0126953125,0,0,0.0126953125,41.99609375,0)" xlink:href="#L"/><use transform="matrix(0.0126953125,0,0,0.0126953125,57.154296875,0)" xlink:href="#M"/><use transform="matrix(0.0126953125,0,0,0.0126953125,79.9296875,0)" xlink:href="#N"/></g><path d="M577 24c-279 0-473-224-473-580 0-354 195-576 474-576 218 0 287 134 324 193h14v-551h180V0H922v-173h-20C865-111 790 24 577 24zm27-161c203 0 314-172 314-421 0-247-108-413-314-413-212 0-317 181-317 413 0 235 108 421 317 421" id="R"/><g id="d"><use transform="matrix(0.0126953125,0,0,0.0126953125,0,0)" xlink:href="#R"/><use transform="matrix(0.0126953125,0,0,0.0126953125,15.919921875,0)" xlink:href="#L"/></g><path d="M158 418v-1536h174v179h20c37-59 106-193 324-193 279 0 474 222 474 576 0 356-194 580-473 580-213 0-288-135-325-197h-14v591H158zm492-555c209 0 317-186 317-421 0-232-105-413-317-413-206 0-314 166-314 413 0 249 111 421 314 421" id="S"/><path d="M611 442c-248 0-391-105-460-228l146-94c47 65 117 165 314 165 178 0 307-82 307-266v-224h-17C863-141 792-18 576-18c-268 0-472-195-472-546 0-346 197-568 476-568 216 0 288 133 326 193h17v-179h175V29c0 289-215 413-487 413zm-5-620c203 0 314-146 314-390 0-237-108-403-314-403-213 0-319 180-319 403 0 230 109 390 319 390" id="T"/><path d="M613 24c-304 0-509-231-509-576 0-350 205-580 509-580 305 0 511 230 511 580 0 345-206 576-511 576zm0-161c226 0 329-195 329-415 0-222-103-419-329-419-223 0-326 196-326 419 0 220 103 415 326 415" id="U"/><g id="e"><use transform="matrix(0.0126953125,0,0,0.0126953125,0,0)" xlink:href="#S"/><use transform="matrix(0.0126953125,0,0,0.0126953125,16.173828125,0)" xlink:href="#N"/><use transform="matrix(0.0126953125,0,0,0.0126953125,30.7734375,0)" xlink:href="#T"/><use transform="matrix(0.0126953125,0,0,0.0126953125,46.71875,0)" xlink:href="#N"/><use transform="matrix(0.0126953125,0,0,0.0126953125,61.318359375,0)" xlink:href="#M"/><use transform="matrix(0.0126953125,0,0,0.0126953125,84.09375,0)" xlink:href="#L"/><use transform="matrix(0.0126953125,0,0,0.0126953125,99.251953125,0)" xlink:href="#Q"/><use transform="matrix(0.0126953125,0,0,0.0126953125,114.61328125,0)" xlink:href="#K"/><use transform="matrix(0.0126953125,0,0,0.0126953125,122.865234375,0)" xlink:href="#U"/></g><path fill="#3a414a" d="M135 0v-1490h581c339 0 533 210 533 503 0 295-197 500-540 500H440V0H135zm305-733h220c186 0 274-104 274-254s-88-251-275-251H440v505" id="V"/><path fill="#3a414a" d="M633 22C291 22 81-200 81-553c0-345 210-579 537-579 292 0 525 185 525 567v84H378c7 183 109 277 260 277 105 0 184-46 216-132l272 51C1071-99 893 22 633 22zM380-669h474c-15-146-94-237-233-237-143 0-229 99-241 237" id="W"/><path fill="#3a414a" d="M537 19C279 19 81-185 81-557c0-382 206-575 454-575 190 0 278 113 318 202h10v-560h300V0H868v-179h-15C812-89 719 19 537 19zm92-241c153 0 240-134 240-336 0-203-86-334-240-334-158 0-240 138-240 334 0 197 84 336 240 336" id="X"/><path fill="#3a414a" d="M128 0v-1118h300V0H128zm150-1264c-91 0-165-68-165-154 0-85 74-154 165-154 90 0 165 69 165 154 0 86-75 154-165 154" id="Y"/><path fill="#3a414a" d="M628 22C291 22 81-210 81-554c0-346 210-578 547-578 336 0 547 232 547 578 0 344-211 576-547 576zm0-236c160 0 242-146 242-341 0-197-82-341-242-341S387-753 387-555c0 195 81 341 241 341" id="Z"/><g id="f"><use transform="matrix(0.01193576388888889,0,0,0.01193576388888889,0,0)" xlink:href="#V"/><use transform="matrix(0.01193576388888889,0,0,0.01193576388888889,15.635850694444446,0)" xlink:href="#W"/><use transform="matrix(0.01193576388888889,0,0,0.01193576388888889,30.197482638888893,0)" xlink:href="#X"/><use transform="matrix(0.01193576388888889,0,0,0.01193576388888889,45.60655381944445,0)" xlink:href="#Y"/><use transform="matrix(0.01193576388888889,0,0,0.01193576388888889,52.23090277777778,0)" xlink:href="#X"/><use transform="matrix(0.01193576388888889,0,0,0.01193576388888889,67.63997395833334,0)" xlink:href="#Z"/></g><g id="g"><use transform="matrix(0.01193576388888889,0,0,0.01193576388888889,0,0)" xlink:href="#X"/><use transform="matrix(0.01193576388888889,0,0,0.01193576388888889,15.409071180555557,0)" xlink:href="#W"/></g><path fill="#3a414a" d="M681 22C323 22 94-145 85-462h297c10 151 131 226 296 226 163 0 271-77 271-190 0-102-95-149-257-189l-164-41c-252-61-403-188-403-405 0-269 236-449 560-449 330 0 546 183 551 445H941c-11-119-106-188-259-188-156 0-244 72-244 172-3 156 226 185 373 221 250 61 445 186 445 436 0 271-213 446-575 446" id="aa"/><path fill="#3a414a" d="M128 0v-1118h290v195h12c54-169 184-238 367-200v268c-27-8-86-15-130-15-138 0-239 95-239 234V0H128" id="ab"/><path fill="#3a414a" d="M443 0L31-1118h319c90 293 199 572 268 885 66-313 175-593 264-885h315L784 0H443" id="ac"/><path fill="#3a414a" d="M499 418V299c80-5 216 24 216-62 0-44-25-60-89-60h-91l26-158C264-10 81-233 81-554c0-346 210-578 547-578 265 0 455 142 497 372l-279 52c-25-116-99-188-215-188-160 0-244 139-244 341 0 200 84 341 244 341 116 0 193-74 217-195l279 51C1088-140 923 0 685 20l-4 68c126-6 197 51 197 157 0 123-72 173-239 173H499" id="ad"/><g id="h"><use transform="matrix(0.01193576388888889,0,0,0.01193576388888889,0,0)" xlink:href="#aa"/><use transform="matrix(0.01193576388888889,0,0,0.01193576388888889,16.005859375,0)" xlink:href="#W"/><use transform="matrix(0.01193576388888889,0,0,0.01193576388888889,30.567491319444446,0)" xlink:href="#ab"/><use transform="matrix(0.01193576388888889,0,0,0.01193576388888889,40.90386284722222,0)" xlink:href="#ac"/><use transform="matrix(0.01193576388888889,0,0,0.01193576388888889,55.560980902777786,0)" xlink:href="#Y"/><use transform="matrix(0.01193576388888889,0,0,0.01193576388888889,62.185329861111114,0)" xlink:href="#ad"/><use transform="matrix(0.01193576388888889,0,0,0.01193576388888889,76.56792534722223,0)" xlink:href="#Z"/></g><path fill="#3a414a" d="M428-1490V0H128v-1490h300" id="ae"/><path fill="#3a414a" d="M628 22C291 22 81-210 81-554c0-346 210-578 547-578 265 0 455 142 497 372l-279 52c-25-116-99-188-215-188-160 0-244 139-244 341 0 200 84 341 244 341 116 0 193-74 217-195l279 51C1085-123 896 22 628 22" id="af"/><path fill="#3a414a" d="M683-1118v229H474v562c0 71 29 104 102 104 23 0 73-7 95-13l43 225C647 9 580 16 520 16 296 16 174-96 174-301v-588H20v-229h154v-266h300v266h209" id="ag"/><path fill="#3a414a" d="M440 22C227 22 68-92 68-313c0-250 202-322 422-343 195-21 271-24 271-105 0-95-63-149-175-149-116 0-187 57-211 129l-275-46c57-194 237-305 487-305 240 0 474 108 474 379V0H777v-155h-10C713-51 605 22 440 22zm85-211c140 0 238-93 238-211v-121c-37 26-156 42-222 51-111 16-185 59-185 149 0 87 70 132 169 132" id="ah"/><path fill="#3a414a" d="M440 22C227 22 68-92 68-313c0-250 202-322 422-343 195-21 271-24 271-105 0-95-63-149-175-149-116 0-187 57-211 129l-275-46c57-194 237-305 487-305 240 0 474 108 474 379V0H777v-155h-10C713-51 605 22 440 22zm290-1304c-128 0-195-103-258-103-42 0-63 39-65 97H242c4-169 84-265 208-265 129 0 189 103 257 103 45 0 63-33 68-97h162c-3 169-89 265-207 265zM525-189c140 0 238-93 238-211v-121c-37 26-156 42-222 51-111 16-185 59-185 149 0 87 70 132 169 132" id="ai"/><g id="i"><use transform="matrix(0.01193576388888889,0,0,0.01193576388888889,0,0)" xlink:href="#aa"/><use transform="matrix(0.01193576388888889,0,0,0.01193576388888889,16.005859375,0)" xlink:href="#Z"/><use transform="matrix(0.01193576388888889,0,0,0.01193576388888889,30.997178819444446,0)" xlink:href="#ae"/><use transform="matrix(0.01193576388888889,0,0,0.01193576388888889,37.62152777777778,0)" xlink:href="#Y"/><use transform="matrix(0.01193576388888889,0,0,0.01193576388888889,44.245876736111114,0)" xlink:href="#af"/><use transform="matrix(0.01193576388888889,0,0,0.01193576388888889,58.62847222222223,0)" xlink:href="#Y"/><use transform="matrix(0.01193576388888889,0,0,0.01193576388888889,65.25282118055556,0)" xlink:href="#ag"/><use transform="matrix(0.01193576388888889,0,0,0.01193576388888889,74.32400173611111,0)" xlink:href="#ah"/><use transform="matrix(0.01193576388888889,0,0,0.01193576388888889,88.515625,0)" xlink:href="#ad"/><use transform="matrix(0.01193576388888889,0,0,0.01193576388888889,103.13693576388887,0)" xlink:href="#ai"/><use transform="matrix(0.01193576388888889,0,0,0.01193576388888889,117.32855902777777,0)" xlink:href="#Z"/></g><path fill="#3a414a" d="M49 0l509-1490h400L1480 0h-339l-115-346H497L386 0H49zm524-585h374c-75-213-124-402-192-666-66 268-110 453-182 666" id="aj"/><g id="j"><use transform="matrix(0.01193576388888889,0,0,0.01193576388888889,0,0)" xlink:href="#aj"/><use transform="matrix(0.01193576388888889,0,0,0.01193576388888889,16.590711805555557,0)" xlink:href="#ac"/><use transform="matrix(0.01193576388888889,0,0,0.01193576388888889,31.009114583333336,0)" xlink:href="#ah"/><use transform="matrix(0.01193576388888889,0,0,0.01193576388888889,45.20073784722223,0)" xlink:href="#ae"/><use transform="matrix(0.01193576388888889,0,0,0.01193576388888889,51.82508680555556,0)" xlink:href="#Y"/><use transform="matrix(0.01193576388888889,0,0,0.01193576388888889,58.44943576388891,0)" xlink:href="#ah"/><use transform="matrix(0.01193576388888889,0,0,0.01193576388888889,72.64105902777779,0)" xlink:href="#ad"/><use transform="matrix(0.01193576388888889,0,0,0.01193576388888889,87.26236979166667,0)" xlink:href="#ai"/><use transform="matrix(0.01193576388888889,0,0,0.01193576388888889,101.45399305555556,0)" xlink:href="#Z"/></g><path fill="#3a414a" d="M135 0v-1490h581c339 0 533 192 533 485 0 204-94 351-264 424L1302 0H964L680-532H440V0H135zm305-779h220c186 0 274-77 274-226 0-150-88-233-275-233H440v459" id="ak"/><path fill="#3a414a" d="M128 0v-1118h278l12 217c60-163 185-234 319-234 143 0 236 81 288 251 63-172 205-251 359-251 205 0 357 138 357 381V0h-301v-697c0-126-76-187-177-187-114 0-184 79-184 196V0H789v-705c0-109-72-179-174-179-106 0-187 74-187 208V0H128" id="al"/><g id="k"><use transform="matrix(0.01193576388888889,0,0,0.01193576388888889,0,0)" xlink:href="#ak"/><use transform="matrix(0.01193576388888889,0,0,0.01193576388888889,15.755208333333334,0)" xlink:href="#W"/><use transform="matrix(0.01193576388888889,0,0,0.01193576388888889,30.31684027777778,0)" xlink:href="#af"/><use transform="matrix(0.01193576388888889,0,0,0.01193576388888889,44.69943576388889,0)" xlink:href="#ae"/><use transform="matrix(0.01193576388888889,0,0,0.01193576388888889,51.32378472222223,0)" xlink:href="#ah"/><use transform="matrix(0.01193576388888889,0,0,0.01193576388888889,65.51540798611111,0)" xlink:href="#al"/><use transform="matrix(0.01193576388888889,0,0,0.01193576388888889,87.82335069444446,0)" xlink:href="#ah"/><use transform="matrix(0.01193576388888889,0,0,0.01193576388888889,102.01497395833334,0)" xlink:href="#ad"/><use transform="matrix(0.01193576388888889,0,0,0.01193576388888889,116.63628472222223,0)" xlink:href="#ai"/><use transform="matrix(0.01193576388888889,0,0,0.01193576388888889,130.82790798611111,0)" xlink:href="#Z"/></g><path fill="#3a414a" d="M768-1560L288 224H28l480-1784h260" id="am"/><use transform="matrix(0.01193576388888889,0,0,0.01193576388888889,0,0)" xlink:href="#am" id="l"/><g id="m"><use transform="matrix(0.01193576388888889,0,0,0.01193576388888889,0,0)" xlink:href="#aa"/><use transform="matrix(0.01193576388888889,0,0,0.01193576388888889,16.005859375,0)" xlink:href="#Z"/><use transform="matrix(0.01193576388888889,0,0,0.01193576388888889,30.997178819444446,0)" xlink:href="#ae"/><use transform="matrix(0.01193576388888889,0,0,0.01193576388888889,37.62152777777778,0)" xlink:href="#Y"/><use transform="matrix(0.01193576388888889,0,0,0.01193576388888889,44.245876736111114,0)" xlink:href="#af"/><use transform="matrix(0.01193576388888889,0,0,0.01193576388888889,58.62847222222223,0)" xlink:href="#Y"/><use transform="matrix(0.01193576388888889,0,0,0.01193576388888889,65.25282118055556,0)" xlink:href="#ag"/><use transform="matrix(0.01193576388888889,0,0,0.01193576388888889,74.32400173611111,0)" xlink:href="#ah"/><use transform="matrix(0.01193576388888889,0,0,0.01193576388888889,88.515625,0)" xlink:href="#ad"/><use transform="matrix(0.01193576388888889,0,0,0.01193576388888889,103.13693576388887,0)" xlink:href="#ai"/><use transform="matrix(0.01193576388888889,0,0,0.01193576388888889,117.32855902777777,0)" xlink:href="#Z"/></g><g id="n"><use transform="matrix(0.01193576388888889,0,0,0.01193576388888889,0,0)" xlink:href="#X"/><use transform="matrix(0.01193576388888889,0,0,0.01193576388888889,15.409071180555557,0)" xlink:href="#W"/></g><path fill="#3a414a" d="M135 0v-1490h997v253H440v360h640v249H440v375h694V0H135" id="an"/><path fill="#3a414a" d="M572 22C302 22 117-98 78-306l279-48c29 105 101 156 224 156 114 0 185-48 185-115 0-118-228-130-337-155-215-49-322-150-322-317 0-215 187-347 470-347 265 0 424 116 466 298l-266 47c-24-76-87-130-196-130-98 0-174 46-174 113 0 56 38 95 144 117l201 40c216 44 320 143 320 302 0 220-207 367-500 367" id="ao"/><path fill="#3a414a" d="M428-647V0H128v-1118h283l4 231c63-156 176-245 348-245 232 0 384 159 384 421V0H847v-659c0-139-76-222-202-222-128 0-217 86-217 234" id="ap"/><g id="o"><use transform="matrix(0.01193576388888889,0,0,0.01193576388888889,0,0)" xlink:href="#an"/><use transform="matrix(0.01193576388888889,0,0,0.01193576388888889,14.848090277777779,0)" xlink:href="#ao"/><use transform="matrix(0.01193576388888889,0,0,0.01193576388888889,28.538411458333336,0)" xlink:href="#ag"/><use transform="matrix(0.01193576388888889,0,0,0.01193576388888889,37.25151909722223,0)" xlink:href="#Z"/><use transform="matrix(0.01193576388888889,0,0,0.01193576388888889,52.24283854166667,0)" xlink:href="#ab"/><use transform="matrix(0.01193576388888889,0,0,0.01193576388888889,62.376302083333336,0)" xlink:href="#ap"/><use transform="matrix(0.01193576388888889,0,0,0.01193576388888889,77.59440104166667,0)" xlink:href="#Z"/></g><path d="M158 0v-1118h174v172h12c41-113 157-188 290-188 26 0 70 2 91 3v181c-11-2-60-10-108-10-161 0-279 109-279 260V0H158" id="aq"/><g id="p"><use transform="matrix(0.0126953125,0,0,0.0126953125,0,0)" xlink:href="#S"/><use transform="matrix(0.0126953125,0,0,0.0126953125,15.919921875,0)" xlink:href="#aq"/><use transform="matrix(0.0126953125,0,0,0.0126953125,25.2763671875,0)" xlink:href="#L"/><use transform="matrix(0.0126953125,0,0,0.0126953125,40.4345703125,0)" xlink:href="#J"/><use transform="matrix(0.0126953125,0,0,0.0126953125,54.158203125,0)" xlink:href="#K"/><use transform="matrix(0.0126953125,0,0,0.0126953125,62.791015625,0)" xlink:href="#N"/><use transform="matrix(0.0126953125,0,0,0.0126953125,77.390625,0)" xlink:href="#R"/><use transform="matrix(0.0126953125,0,0,0.0126953125,93.310546875,0)" xlink:href="#U"/><use transform="matrix(0.0126953125,0,0,0.0126953125,108.900390625,0)" xlink:href="#aq"/></g><path fill="#3a414a" d="M659 0H135v-1490h529c448 0 721 280 721 744 0 466-273 746-726 746zM440-263h204c287 0 437-148 437-483 0-333-150-481-435-481H440v964" id="ar"/><g id="q"><use transform="matrix(0.01193576388888889,0,0,0.01193576388888889,0,0)" xlink:href="#ar"/><use transform="matrix(0.01193576388888889,0,0,0.01193576388888889,17.652994791666668,0)" xlink:href="#W"/><use transform="matrix(0.01193576388888889,0,0,0.01193576388888889,32.214626736111114,0)" xlink:href="#af"/><use transform="matrix(0.01193576388888889,0,0,0.01193576388888889,46.59722222222223,0)" xlink:href="#Y"/><use transform="matrix(0.01193576388888889,0,0,0.01193576388888889,53.22157118055556,0)" xlink:href="#ao"/><use transform="matrix(0.01193576388888889,0,0,0.01193576388888889,66.91189236111111,0)" xlink:href="#ai"/><use transform="matrix(0.01193576388888889,0,0,0.01193576388888889,81.103515625,0)" xlink:href="#Z"/></g><path fill="#3a414a" d="M169-607c0-330 107-732 258-974h279c-145 311-231 674-231 974 0 262 67 512 231 886H427C258-1 169-307 169-607" id="as"/><path fill="#3a414a" d="M127-1118h301V57c1 278-186 374-478 361V182c116 8 177-28 177-129v-1171zm151-146c-90 0-165-68-165-154 0-85 75-154 165-154s165 69 165 154c0 86-75 154-165 154" id="at"/><path fill="#3a414a" d="M67 279c166-379 230-627 230-886 0-300-86-663-230-974h278c151 241 258 644 258 974 0 302-90 608-258 886H67" id="au"/><g id="r"><use transform="matrix(0.01193576388888889,0,0,0.01193576388888889,0,0)" xlink:href="#as"/><use transform="matrix(0.01193576388888889,0,0,0.01193576388888889,9.214409722222223,0)" xlink:href="#aj"/><use transform="matrix(0.01193576388888889,0,0,0.01193576388888889,26.903211805555557,0)" xlink:href="#af"/><use transform="matrix(0.01193576388888889,0,0,0.01193576388888889,41.28580729166667,0)" xlink:href="#W"/><use transform="matrix(0.01193576388888889,0,0,0.01193576388888889,55.847439236111114,0)" xlink:href="#Y"/><use transform="matrix(0.01193576388888889,0,0,0.01193576388888889,62.47178819444445,0)" xlink:href="#ag"/><use transform="matrix(0.01193576388888889,0,0,0.01193576388888889,71.54296875,0)" xlink:href="#ah"/><use transform="matrix(0.01193576388888889,0,0,0.01193576388888889,85.73459201388889,0)" xlink:href="#am"/><use transform="matrix(0.01193576388888889,0,0,0.01193576388888889,95.22352430555556,0)" xlink:href="#ak"/><use transform="matrix(0.01193576388888889,0,0,0.01193576388888889,110.97873263888887,0)" xlink:href="#W"/><use transform="matrix(0.01193576388888889,0,0,0.01193576388888889,125.54036458333333,0)" xlink:href="#at"/><use transform="matrix(0.01193576388888889,0,0,0.01193576388888889,132.16471354166666,0)" xlink:href="#W"/><use transform="matrix(0.01193576388888889,0,0,0.01193576388888889,146.72634548611111,0)" xlink:href="#Y"/><use transform="matrix(0.01193576388888889,0,0,0.01193576388888889,153.35069444444446,0)" xlink:href="#ag"/><use transform="matrix(0.01193576388888889,0,0,0.01193576388888889,162.421875,0)" xlink:href="#ah"/><use transform="matrix(0.01193576388888889,0,0,0.01193576388888889,176.61349826388889,0)" xlink:href="#au"/></g><path fill="#3a414a" d="M440-1490V0H135v-1490h305" id="av"/><path fill="#3a414a" d="M513 14c-232 0-385-159-385-421v-711h300v659c0 139 76 222 202 222 127 0 217-86 217-234v-647h301V0H864l-4-232C797-74 683 14 513 14" id="aw"/><g id="s"><use transform="matrix(0.01193576388888889,0,0,0.01193576388888889,0,0)" xlink:href="#av"/><use transform="matrix(0.01193576388888889,0,0,0.01193576388888889,6.863064236111112,0)" xlink:href="#ap"/><use transform="matrix(0.01193576388888889,0,0,0.01193576388888889,22.081163194444446,0)" xlink:href="#ao"/><use transform="matrix(0.01193576388888889,0,0,0.01193576388888889,35.771484375,0)" xlink:href="#ag"/><use transform="matrix(0.01193576388888889,0,0,0.01193576388888889,44.72330729166667,0)" xlink:href="#ab"/><use transform="matrix(0.01193576388888889,0,0,0.01193576388888889,54.67773437500001,0)" xlink:href="#aw"/><use transform="matrix(0.01193576388888889,0,0,0.01193576388888889,69.89583333333334,0)" xlink:href="#ad"/><use transform="matrix(0.01193576388888889,0,0,0.01193576388888889,84.51714409722223,0)" xlink:href="#ai"/><use transform="matrix(0.01193576388888889,0,0,0.01193576388888889,98.70876736111111,0)" xlink:href="#Z"/></g><path fill="#3a414a" d="M625 442c-280 0-454-114-503-274l258-72c28 63 97 128 243 128 153 0 246-69 246-216v-206h-23C805-108 717-16 536-16 284-16 81-191 81-561c0-378 208-571 456-571 188 0 280 113 321 202h13v-188h295V-9c0 303-226 451-541 451zm5-686c153 0 240-119 240-319 0-198-86-329-240-329-158 0-241 137-241 329 0 195 85 319 241 319" id="ax"/><g id="t"><use transform="matrix(0.01193576388888889,0,0,0.01193576388888889,0,0)" xlink:href="#V"/><use transform="matrix(0.01193576388888889,0,0,0.01193576388888889,15.528428819444446,0)" xlink:href="#ah"/><use transform="matrix(0.01193576388888889,0,0,0.01193576388888889,29.720052083333336,0)" xlink:href="#ax"/><use transform="matrix(0.01193576388888889,0,0,0.01193576388888889,45.16493055555556,0)" xlink:href="#ah"/><use transform="matrix(0.01193576388888889,0,0,0.01193576388888889,59.356553819444436,0)" xlink:href="#al"/><use transform="matrix(0.01193576388888889,0,0,0.01193576388888889,81.66449652777777,0)" xlink:href="#W"/><use transform="matrix(0.01193576388888889,0,0,0.01193576388888889,96.22612847222221,0)" xlink:href="#ap"/><use transform="matrix(0.01193576388888889,0,0,0.01193576388888889,111.44422743055554,0)" xlink:href="#ag"/><use transform="matrix(0.01193576388888889,0,0,0.01193576388888889,120.15733506944443,0)" xlink:href="#Z"/></g><path fill="#333" d="M135 0v-1490h581c339 0 533 210 533 503 0 295-197 500-540 500H440V0H135zm305-733h220c186 0 274-104 274-254s-88-251-275-251H440v505" id="ay"/><path fill="#333" d="M128 0v-1118h290v195h12c54-169 184-238 367-200v268c-27-8-86-15-130-15-138 0-239 95-239 234V0H128" id="az"/><path fill="#333" d="M633 22C291 22 81-200 81-553c0-345 210-579 537-579 292 0 525 185 525 567v84H378c7 183 109 277 260 277 105 0 184-46 216-132l272 51C1071-99 893 22 633 22zM380-669h474c-15-146-94-237-233-237-143 0-229 99-241 237" id="aA"/><path fill="#333" d="M572 22C302 22 117-98 78-306l279-48c29 105 101 156 224 156 114 0 185-48 185-115 0-118-228-130-337-155-215-49-322-150-322-317 0-215 187-347 470-347 265 0 424 116 466 298l-266 47c-24-76-87-130-196-130-98 0-174 46-174 113 0 56 38 95 144 117l201 40c216 44 320 143 320 302 0 220-207 367-500 367" id="aB"/><path fill="#333" d="M683-1118v229H474v562c0 71 29 104 102 104 23 0 73-7 95-13l43 225C647 9 580 16 520 16 296 16 174-96 174-301v-588H20v-229h154v-266h300v266h209" id="aC"/><path fill="#333" d="M440 22C227 22 68-92 68-313c0-250 202-322 422-343 195-21 271-24 271-105 0-95-63-149-175-149-116 0-187 57-211 129l-275-46c57-194 237-305 487-305 240 0 474 108 474 379V0H777v-155h-10C713-51 605 22 440 22zm85-211c140 0 238-93 238-211v-121c-37 26-156 42-222 51-111 16-185 59-185 149 0 87 70 132 169 132" id="aD"/><path fill="#333" d="M499 418V299c80-5 216 24 216-62 0-44-25-60-89-60h-91l26-158C264-10 81-233 81-554c0-346 210-578 547-578 265 0 455 142 497 372l-279 52c-25-116-99-188-215-188-160 0-244 139-244 341 0 200 84 341 244 341 116 0 193-74 217-195l279 51C1088-140 923 0 685 20l-4 68c126-6 197 51 197 157 0 123-72 173-239 173H499" id="aE"/><path fill="#333" d="M440 22C227 22 68-92 68-313c0-250 202-322 422-343 195-21 271-24 271-105 0-95-63-149-175-149-116 0-187 57-211 129l-275-46c57-194 237-305 487-305 240 0 474 108 474 379V0H777v-155h-10C713-51 605 22 440 22zm290-1304c-128 0-195-103-258-103-42 0-63 39-65 97H242c4-169 84-265 208-265 129 0 189 103 257 103 45 0 63-33 68-97h162c-3 169-89 265-207 265zM525-189c140 0 238-93 238-211v-121c-37 26-156 42-222 51-111 16-185 59-185 149 0 87 70 132 169 132" id="aF"/><path fill="#333" d="M628 22C291 22 81-210 81-554c0-346 210-578 547-578 336 0 547 232 547 578 0 344-211 576-547 576zm0-236c160 0 242-146 242-341 0-197-82-341-242-341S387-753 387-555c0 195 81 341 241 341" id="aG"/><g id="u"><use transform="matrix(0.01193576388888889,0,0,0.01193576388888889,0,0)" xlink:href="#ay"/><use transform="matrix(0.01193576388888889,0,0,0.01193576388888889,15.838758680555557,0)" xlink:href="#az"/><use transform="matrix(0.01193576388888889,0,0,0.01193576388888889,25.196397569444446,0)" xlink:href="#aA"/><use transform="matrix(0.01193576388888889,0,0,0.01193576388888889,39.75802951388889,0)" xlink:href="#aB"/><use transform="matrix(0.01193576388888889,0,0,0.01193576388888889,53.44835069444445,0)" xlink:href="#aC"/><use transform="matrix(0.01193576388888889,0,0,0.01193576388888889,62.51953125000001,0)" xlink:href="#aD"/><use transform="matrix(0.01193576388888889,0,0,0.01193576388888889,76.71115451388889,0)" xlink:href="#aE"/><use transform="matrix(0.01193576388888889,0,0,0.01193576388888889,91.33246527777777,0)" xlink:href="#aF"/><use transform="matrix(0.01193576388888889,0,0,0.01193576388888889,105.52408854166666,0)" xlink:href="#aG"/></g><path fill="#333" d="M537 19C279 19 81-185 81-557c0-382 206-575 454-575 190 0 278 113 318 202h10v-560h300V0H868v-179h-15C812-89 719 19 537 19zm92-241c153 0 240-134 240-336 0-203-86-334-240-334-158 0-240 138-240 334 0 197 84 336 240 336" id="aH"/><g id="v"><use transform="matrix(0.01193576388888889,0,0,0.01193576388888889,0,0)" xlink:href="#aH"/><use transform="matrix(0.01193576388888889,0,0,0.01193576388888889,15.409071180555557,0)" xlink:href="#aG"/></g><path fill="#333" d="M443 0L31-1118h319c90 293 199 572 268 885 66-313 175-593 264-885h315L784 0H443" id="aI"/><path fill="#333" d="M128 0v-1118h300V0H128zm150-1264c-91 0-165-68-165-154 0-85 74-154 165-154 90 0 165 69 165 154 0 86-75 154-165 154" id="aJ"/><g id="w"><use transform="matrix(0.01193576388888889,0,0,0.01193576388888889,0,0)" xlink:href="#aB"/><use transform="matrix(0.01193576388888889,0,0,0.01193576388888889,13.690321180555557,0)" xlink:href="#aA"/><use transform="matrix(0.01193576388888889,0,0,0.01193576388888889,28.251953125000004,0)" xlink:href="#az"/><use transform="matrix(0.01193576388888889,0,0,0.01193576388888889,38.58832465277778,0)" xlink:href="#aI"/><use transform="matrix(0.01193576388888889,0,0,0.01193576388888889,53.245442708333336,0)" xlink:href="#aJ"/><use transform="matrix(0.01193576388888889,0,0,0.01193576388888889,59.86979166666667,0)" xlink:href="#aE"/><use transform="matrix(0.01193576388888889,0,0,0.01193576388888889,74.25238715277779,0)" xlink:href="#aG"/></g><path fill="#333" d="M128 418v-1536h295v188h14c41-89 129-202 319-202 248 0 453 193 453 575 0 372-197 576-455 576-183 0-275-108-317-198h-9v597H128zm534-640c156 0 240-139 240-336 0-196-83-334-240-334-154 0-241 131-241 334 0 202 88 336 241 336" id="aK"/><g id="x"><use transform="matrix(0.01193576388888889,0,0,0.01193576388888889,0,0)" xlink:href="#ay"/><use transform="matrix(0.01193576388888889,0,0,0.01193576388888889,15.838758680555557,0)" xlink:href="#az"/><use transform="matrix(0.01193576388888889,0,0,0.01193576388888889,25.196397569444446,0)" xlink:href="#aG"/><use transform="matrix(0.01193576388888889,0,0,0.01193576388888889,40.18771701388889,0)" xlink:href="#aK"/><use transform="matrix(0.01193576388888889,0,0,0.01193576388888889,55.59678819444445,0)" xlink:href="#aG"/><use transform="matrix(0.01193576388888889,0,0,0.01193576388888889,70.5881076388889,0)" xlink:href="#aB"/><use transform="matrix(0.01193576388888889,0,0,0.01193576388888889,84.27842881944446,0)" xlink:href="#aC"/><use transform="matrix(0.01193576388888889,0,0,0.01193576388888889,93.34960937500001,0)" xlink:href="#aD"/></g><g id="y"><use transform="matrix(0.01193576388888889,0,0,0.01193576388888889,0,0)" xlink:href="#aH"/><use transform="matrix(0.01193576388888889,0,0,0.01193576388888889,15.409071180555557,0)" xlink:href="#aA"/></g><path fill="#333" d="M128 0v-1118h278l12 217c60-163 185-234 319-234 143 0 236 81 288 251 63-172 205-251 359-251 205 0 357 138 357 381V0h-301v-697c0-126-76-187-177-187-114 0-184 79-184 196V0H789v-705c0-109-72-179-174-179-106 0-187 74-187 208V0H128" id="aL"/><path fill="#333" d="M428-647V0H128v-1118h283l4 231c63-156 176-245 348-245 232 0 384 159 384 421V0H847v-659c0-139-76-222-202-222-128 0-217 86-217 234" id="aM"/><g id="z"><use transform="matrix(0.01193576388888889,0,0,0.01193576388888889,0,0)" xlink:href="#aG"/><use transform="matrix(0.01193576388888889,0,0,0.01193576388888889,14.991319444444446,0)" xlink:href="#az"/><use transform="matrix(0.01193576388888889,0,0,0.01193576388888889,24.348958333333336,0)" xlink:href="#aE"/><use transform="matrix(0.01193576388888889,0,0,0.01193576388888889,38.97026909722223,0)" xlink:href="#aD"/><use transform="matrix(0.01193576388888889,0,0,0.01193576388888889,53.161892361111114,0)" xlink:href="#aL"/><use transform="matrix(0.01193576388888889,0,0,0.01193576388888889,75.46983506944446,0)" xlink:href="#aA"/><use transform="matrix(0.01193576388888889,0,0,0.01193576388888889,90.0314670138889,0)" xlink:href="#aM"/><use transform="matrix(0.01193576388888889,0,0,0.01193576388888889,105.24956597222223,0)" xlink:href="#aC"/><use transform="matrix(0.01193576388888889,0,0,0.01193576388888889,113.96267361111111,0)" xlink:href="#aG"/></g><path fill="#333" d="M169-607c0-330 107-732 258-974h279c-145 311-231 674-231 974 0 262 67 512 231 886H427C258-1 169-307 169-607" id="aN"/><path fill="#333" d="M628 22C291 22 81-210 81-554c0-346 210-578 547-578 265 0 455 142 497 372l-279 52c-25-116-99-188-215-188-160 0-244 139-244 341 0 200 84 341 244 341 116 0 193-74 217-195l279 51C1085-123 896 22 628 22" id="aO"/><path fill="#333" d="M428-647V0H128v-1490h294v586c65-146 175-228 341-228 232 0 385 159 385 421V0H847v-659c0-139-76-222-202-222-128 0-217 86-217 234" id="aP"/><path fill="#333" d="M67 279c166-379 230-627 230-886 0-300-86-663-230-974h278c151 241 258 644 258 974 0 302-90 608-258 886H67" id="aQ"/><g id="A"><use transform="matrix(0.01193576388888889,0,0,0.01193576388888889,0,0)" xlink:href="#aN"/><use transform="matrix(0.01193576388888889,0,0,0.01193576388888889,9.083116319444445,0)" xlink:href="#aO"/><use transform="matrix(0.01193576388888889,0,0,0.01193576388888889,23.465711805555557,0)" xlink:href="#aP"/><use transform="matrix(0.01193576388888889,0,0,0.01193576388888889,38.68381076388889,0)" xlink:href="#aD"/><use transform="matrix(0.01193576388888889,0,0,0.01193576388888889,52.87543402777778,0)" xlink:href="#aC"/><use transform="matrix(0.01193576388888889,0,0,0.01193576388888889,61.82725694444446,0)" xlink:href="#aQ"/></g><path fill="#3a414a" d="M786 20C389 20 94-260 94-744c0-487 299-766 692-766 339 0 597 194 641 529h-309c-28-162-156-258-326-258-233 0-388 179-388 495 0 323 157 493 387 493 170 0 298-97 328-259h309c-34 277-266 530-642 530" id="aR"/><path fill="#3a414a" d="M750-1118v229H516V0H217v-889H20v-229h197v-86c0-238 156-356 363-356 94 0 178 20 215 31l-54 226c-25-7-61-15-100-15-123-3-131 84-125 200h234" id="aS"/><g id="B"><use transform="matrix(0.01193576388888889,0,0,0.01193576388888889,0,0)" xlink:href="#aR"/><use transform="matrix(0.01193576388888889,0,0,0.01193576388888889,18.082682291666668,0)" xlink:href="#Z"/><use transform="matrix(0.01193576388888889,0,0,0.01193576388888889,33.074001736111114,0)" xlink:href="#ap"/><use transform="matrix(0.01193576388888889,0,0,0.01193576388888889,48.29210069444445,0)" xlink:href="#aS"/><use transform="matrix(0.01193576388888889,0,0,0.01193576388888889,58.22265625000001,0)" xlink:href="#Y"/><use transform="matrix(0.01193576388888889,0,0,0.01193576388888889,64.84700520833334,0)" xlink:href="#ab"/><use transform="matrix(0.01193576388888889,0,0,0.01193576388888889,74.98046875,0)" xlink:href="#al"/><use transform="matrix(0.01193576388888889,0,0,0.01193576388888889,97.28841145833334,0)" xlink:href="#ah"/><use transform="matrix(0.01193576388888889,0,0,0.01193576388888889,111.48003472222223,0)" xlink:href="#ad"/><use transform="matrix(0.01193576388888889,0,0,0.01193576388888889,126.10134548611111,0)" xlink:href="#ai"/><use transform="matrix(0.01193576388888889,0,0,0.01193576388888889,140.29296875,0)" xlink:href="#Z"/></g><g id="C"><use transform="matrix(0.01193576388888889,0,0,0.01193576388888889,0,0)" xlink:href="#X"/><use transform="matrix(0.01193576388888889,0,0,0.01193576388888889,15.409071180555557,0)" xlink:href="#Z"/></g><path fill="#3a414a" d="M128 418v-1536h295v188h14c41-89 129-202 319-202 248 0 453 193 453 575 0 372-197 576-455 576-183 0-275-108-317-198h-9v597H128zm534-640c156 0 240-139 240-336 0-196-83-334-240-334-154 0-241 131-241 334 0 202 88 336 241 336" id="aT"/><g id="D"><use transform="matrix(0.01193576388888889,0,0,0.01193576388888889,0,0)" xlink:href="#aT"/><use transform="matrix(0.01193576388888889,0,0,0.01193576388888889,15.647786458333334,0)" xlink:href="#ah"/><use transform="matrix(0.01193576388888889,0,0,0.01193576388888889,29.839409722222225,0)" xlink:href="#ax"/><use transform="matrix(0.01193576388888889,0,0,0.01193576388888889,45.28428819444445,0)" xlink:href="#ah"/><use transform="matrix(0.01193576388888889,0,0,0.01193576388888889,59.475911458333336,0)" xlink:href="#al"/><use transform="matrix(0.01193576388888889,0,0,0.01193576388888889,81.78385416666669,0)" xlink:href="#W"/><use transform="matrix(0.01193576388888889,0,0,0.01193576388888889,96.34548611111113,0)" xlink:href="#ap"/><use transform="matrix(0.01193576388888889,0,0,0.01193576388888889,111.56358506944446,0)" xlink:href="#ag"/><use transform="matrix(0.01193576388888889,0,0,0.01193576388888889,120.27669270833337,0)" xlink:href="#Z"/></g><path fill="#3a414a" d="M428-647V0H128v-1490h294v586c65-146 175-228 341-228 232 0 385 159 385 421V0H847v-659c0-139-76-222-202-222-128 0-217 86-217 234" id="aU"/><g id="E"><use transform="matrix(0.01193576388888889,0,0,0.01193576388888889,0,0)" xlink:href="#ar"/><use transform="matrix(0.01193576388888889,0,0,0.01193576388888889,17.652994791666668,0)" xlink:href="#W"/><use transform="matrix(0.01193576388888889,0,0,0.01193576388888889,32.214626736111114,0)" xlink:href="#ag"/><use transform="matrix(0.01193576388888889,0,0,0.01193576388888889,41.28580729166667,0)" xlink:href="#ah"/><use transform="matrix(0.01193576388888889,0,0,0.01193576388888889,55.47743055555556,0)" xlink:href="#ae"/><use transform="matrix(0.01193576388888889,0,0,0.01193576388888889,62.10177951388889,0)" xlink:href="#aU"/><use transform="matrix(0.01193576388888889,0,0,0.01193576388888889,77.31987847222223,0)" xlink:href="#W"/><use transform="matrix(0.01193576388888889,0,0,0.01193576388888889,91.88151041666667,0)" xlink:href="#ao"/></g><g id="F"><use transform="matrix(0.01193576388888889,0,0,0.01193576388888889,0,0)" xlink:href="#V"/><use transform="matrix(0.01193576388888889,0,0,0.01193576388888889,15.635850694444446,0)" xlink:href="#W"/><use transform="matrix(0.01193576388888889,0,0,0.01193576388888889,30.197482638888893,0)" xlink:href="#X"/><use transform="matrix(0.01193576388888889,0,0,0.01193576388888889,45.60655381944445,0)" xlink:href="#Y"/><use transform="matrix(0.01193576388888889,0,0,0.01193576388888889,52.23090277777778,0)" xlink:href="#X"/><use transform="matrix(0.01193576388888889,0,0,0.01193576388888889,67.63997395833334,0)" xlink:href="#Z"/></g><g id="G"><use transform="matrix(0.01193576388888889,0,0,0.01193576388888889,0,0)" xlink:href="#an"/><use transform="matrix(0.01193576388888889,0,0,0.01193576388888889,14.848090277777779,0)" xlink:href="#aS"/><use transform="matrix(0.01193576388888889,0,0,0.01193576388888889,24.050564236111114,0)" xlink:href="#W"/><use transform="matrix(0.01193576388888889,0,0,0.01193576388888889,38.61219618055556,0)" xlink:href="#ag"/><use transform="matrix(0.01193576388888889,0,0,0.01193576388888889,47.56401909722223,0)" xlink:href="#aw"/><use transform="matrix(0.01193576388888889,0,0,0.01193576388888889,62.78211805555556,0)" xlink:href="#ah"/><use transform="matrix(0.01193576388888889,0,0,0.01193576388888889,76.97374131944446,0)" xlink:href="#ad"/><use transform="matrix(0.01193576388888889,0,0,0.01193576388888889,91.59505208333334,0)" xlink:href="#ai"/><use transform="matrix(0.01193576388888889,0,0,0.01193576388888889,105.78667534722223,0)" xlink:href="#Z"/></g></defs></g></svg>