<svg xmlns="http://www.w3.org/2000/svg" xmlns:xlink="http://www.w3.org/1999/xlink" xmlns:lucid="lucid" width="2321" height="1032"><g transform="translate(-359 -1983)" lucid:page-tab-id="0_0"><path d="M-500 0h3500v4000H-500z" fill="#f2f3f5"/><path d="M1690.18 2343.8c0 70.52-82.05 127.7-183.26 127.7-101.2 0-183.25-57.18-183.25-127.7 0-70.55 82.04-127.74 183.25-127.74 101.2 0 183.26 57.2 183.26 127.73z" stroke="#000" stroke-width="2" fill="#fff"/><use xlink:href="#a" transform="matrix(1,0,0,1,1341.9931498207518,2228.835489026436) translate(106.67426215277777 123.57638888888889)"/><path d="M451.1 2212.8a6 6 0 0 1 6-6h350.7a6 6 0 0 1 6 6v261.98a6 6 0 0 1-6 6H457.1a6 6 0 0 1-6-6z" stroke="#000" stroke-width="2" fill="#fff"/><use xlink:href="#b" transform="matrix(1,0,0,1,469.24473432779286,2220.4933912474544) translate(120.7421875 133.25)"/><path d="M2243.92 2763.3a6 6 0 0 1 6-6h350.7a6 6 0 0 1 6 6v155.98a6 6 0 0 1-6 6h-350.7a6 6 0 0 1-6-6z" stroke="#000" stroke-width="2" fill="#fff"/><use xlink:href="#c" transform="matrix(1,0,0,1,2262.058749180092,2765.693391247454) translate(77.248046875 86.9375)"/><path d="M1576.57 2480.47v377.93a24 24 0 0 0 24 24h640.85" stroke="#3a414a" stroke-width="3" fill="none"/><path d="M1576.57 2465.98l7.5 13h-15z" stroke="#3a414a" stroke-width="3" fill="#3a414a"/><path d="M2242.92 2883.88h-1.53v-2.95h1.52z" stroke="#3a414a" stroke-width=".05" fill="#3a414a"/><path d="M832.3 2462h22a.5.5 0 0 1 .5.5.5.5 0 0 0 .5.48h428.56a24 24 0 0 0 24-24v-7.67a22.5 22.5 0 0 1 22.5-22.5" stroke="#3a414a" stroke-width="3" fill="none"/><path d="M817.8 2462l13-7.5v15zM1344.86 2408.8l-13 7.5v-15z" stroke="#3a414a" stroke-width="3" fill="#3a414a"/><path d="M892.16 2196.35a6 6 0 0 1 6-6h341.15a6 6 0 0 1 6 6v43.94a6 6 0 0 1-6 6H898.17a6 6 0 0 1-6-6z" fill="none"/><use xlink:href="#d" transform="matrix(1,0,0,1,897.1612350952187,2195.3502576735427) translate(0 31.89214409722222)"/><use xlink:href="#e" transform="matrix(1,0,0,1,897.1612350952187,2195.3502576735427) translate(88.4201388888889 31.89214409722222)"/><use xlink:href="#f" transform="matrix(1,0,0,1,897.1612350952187,2195.3502576735427) translate(124.17968750000001 31.89214409722222)"/><path d="M816.3 2242h450.6a24 24 0 0 1 24 24v17.1a22.5 22.5 0 0 0 22.52 22.5" stroke="#3a414a" stroke-width="3" fill="none"/><path d="M816.34 2243.47h-1.54v-2.94h1.54z" stroke="#3a414a" stroke-width=".05" fill="#3a414a"/><path d="M1327.9 2305.6l-12.98 7.5v-15z" stroke="#3a414a" stroke-width="3" fill="#3a414a"/><path d="M849.46 2402.43a6 6 0 0 1 6-6h441.15a6 6 0 0 1 6 6v63.08a6 6 0 0 1-6 6H855.47a6 6 0 0 1-6-6z" fill="none"/><use xlink:href="#g" transform="matrix(1,0,0,1,854.4628272842174,2401.4289724402734) translate(0 41.89214409722222)"/><use xlink:href="#h" transform="matrix(1,0,0,1,854.4628272842174,2401.4289724402734) translate(151.60807291666669 41.89214409722222)"/><use xlink:href="#i" transform="matrix(1,0,0,1,854.4628272842174,2401.4289724402734) translate(166.88585069444446 41.89214409722222)"/><use xlink:href="#j" transform="matrix(1,0,0,1,854.4628272842174,2401.4289724402734) translate(304.9945746527778 41.89214409722222)"/><use xlink:href="#k" transform="matrix(1,0,0,1,854.4628272842174,2401.4289724402734) translate(340.7541232638889 41.89214409722222)"/><path d="M889.15 2305.37a6 6 0 0 1 6-6h380.83a6 6 0 0 1 6 6v38.57a6 6 0 0 1-6 6H895.15a6 6 0 0 1-6-6z" fill="none"/><use xlink:href="#l" transform="matrix(1,0,0,1,894.1484245214875,2304.3667606181434) translate(0 29.39214409722222)"/><use xlink:href="#m" transform="matrix(1,0,0,1,894.1484245214875,2304.3667606181434) translate(122.23415798611111 29.39214409722222)"/><use xlink:href="#f" transform="matrix(1,0,0,1,894.1484245214875,2304.3667606181434) translate(158.42339409722223 29.39214409722222)"/><path d="M2243.92 2212.8a6 6 0 0 1 6-6h350.7a6 6 0 0 1 6 6v261.98a6 6 0 0 1-6 6h-350.7a6 6 0 0 1-6-6z" stroke="#000" stroke-width="2" fill="#fff"/><use xlink:href="#n" transform="matrix(1,0,0,1,2262.058749180092,2220.4933912474544) translate(103.81298828125 133.25)"/><path d="M1828.94 2084.28a6 6 0 0 1 6-6h356.4a6 6 0 0 1 6 6v63.08a6 6 0 0 1-6 6h-356.4a6 6 0 0 1-6-6z" fill="none"/><use xlink:href="#o" transform="matrix(1,0,0,1,1833.9377106657041,2083.2838572199043) translate(0 41.89214409722222)"/><use xlink:href="#e" transform="matrix(1,0,0,1,1833.9377106657041,2083.2838572199043) translate(120.18120659722223 41.89214409722222)"/><use xlink:href="#f" transform="matrix(1,0,0,1,1833.9377106657041,2083.2838572199043) translate(155.94075520833334 41.89214409722222)"/><path d="M1669.8 2282.04V2162.4a24 24 0 0 1 24-24h580.6a24 24 0 0 1 24 24v25.9" stroke="#3a414a" stroke-width="3" fill="none"/><path d="M1671.28 2285.57l-1.47-2.03-1.2-1.54h2.68z" stroke="#3a414a" stroke-width=".05" fill="#3a414a"/><path d="M2298.4 2202.8l-7.5-13h15z" stroke="#3a414a" stroke-width="3" fill="#3a414a"/><path d="M2241.42 2245.6h-496.5a24 24 0 0 0-24 24v9.24a22.5 22.5 0 0 1-22.52 22.5" stroke="#3a414a" stroke-width="3" fill="none"/><path d="M2242.92 2247.07h-1.53v-2.95h1.52z" stroke="#3a414a" stroke-width=".05" fill="#3a414a"/><path d="M1683.9 2301.35l13-7.5v15z" stroke="#3a414a" stroke-width="3" fill="#3a414a"/><path d="M1725.5 2190.8a6 6 0 0 1 6-6h506.42a6 6 0 0 1 6 6v55.05a6 6 0 0 1-6 6h-506.4a6 6 0 0 1-6-6z" fill="none"/><use xlink:href="#p" transform="matrix(1,0,0,1,1730.5075912710997,2189.794254976839) translate(0 37.89214409722222)"/><use xlink:href="#e" transform="matrix(1,0,0,1,1730.5075912710997,2189.794254976839) translate(101.88368055555556 37.89214409722222)"/><use xlink:href="#q" transform="matrix(1,0,0,1,1730.5075912710997,2189.794254976839) translate(137.64322916666669 37.89214409722222)"/><use xlink:href="#r" transform="matrix(1,0,0,1,1730.5075912710997,2189.794254976839) translate(263.9474826388889 37.89214409722222)"/><path d="M2241.42 2380h-540.16" stroke="#3a414a" stroke-width="3" fill="none"/><path d="M2242.92 2381.47h-1.53v-2.94h1.52z" stroke="#3a414a" stroke-width=".05" fill="#3a414a"/><path d="M1686.77 2380l13-7.5v15z" stroke="#3a414a" stroke-width="3" fill="#3a414a"/><path d="M1779.35 2323.5a6 6 0 0 1 6-6h379.34a6 6 0 0 1 6 6v63.1a6 6 0 0 1-6 6h-379.35a6 6 0 0 1-6-6z" fill="none"/><use xlink:href="#s" transform="matrix(1,0,0,1,1784.3512184698893,2322.5079828569405) translate(0 41.89214409722222)"/><use xlink:href="#e" transform="matrix(1,0,0,1,1784.3512184698893,2322.5079828569405) translate(161.07313368055557 41.89214409722222)"/><use xlink:href="#t" transform="matrix(1,0,0,1,1784.3512184698893,2322.5079828569405) translate(196.83268229166669 41.89214409722222)"/><path d="M1761.97 2831.64a6 6 0 0 1 6-6h356.4a6 6 0 0 1 6 6v63.08a6 6 0 0 1-6 6h-356.4a6 6 0 0 1-6-6z" fill="none"/><g><use xlink:href="#u" transform="matrix(1,0,0,1,1766.9661129168173,2830.6440466435056) translate(0 41.89214409722222)"/><use xlink:href="#v" transform="matrix(1,0,0,1,1766.9661129168173,2830.6440466435056) translate(117.14952256944446 41.89214409722222)"/></g><path d="M1655.07 2421.8v88.2a24 24 0 0 0 24 24h599.33a24 24 0 0 0 24-24v-10.73" stroke="#3a414a" stroke-width="3" fill="none"/><path d="M1656.54 2421.85h-2.95v-.15l2.94-2.77z" stroke="#3a414a" stroke-width=".05" fill="#3a414a"/><path d="M2302.4 2484.78l7.5 13h-15z" stroke="#3a414a" stroke-width="3" fill="#3a414a"/><path d="M2226.9 2825.6h-582.3a24 24 0 0 1-24-24v-355.04" stroke="#3a414a" stroke-width="3" fill="none"/><path d="M2241.4 2825.6l-13 7.5v-15z" stroke="#3a414a" stroke-width="3" fill="#3a414a"/><path d="M1622.08 2446.6h-2.95v-.73l2.95-1.62z" stroke="#3a414a" stroke-width=".05" fill="#3a414a"/><path d="M1750.8 2475.04a6 6 0 0 1 6-6h461.34a6 6 0 0 1 6 6v63.08a6 6 0 0 1-6 6H1756.8a6 6 0 0 1-6-6z" fill="none"/><g><use xlink:href="#w" transform="matrix(1,0,0,1,1755.7846016238145,2474.0365095418897) translate(0 41.89214409722222)"/><use xlink:href="#x" transform="matrix(1,0,0,1,1755.7846016238145,2474.0365095418897) translate(162.8754340277778 41.89214409722222)"/><use xlink:href="#y" transform="matrix(1,0,0,1,1755.7846016238145,2474.0365095418897) translate(220.25065104166669 41.89214409722222)"/><use xlink:href="#z" transform="matrix(1,0,0,1,1755.7846016238145,2474.0365095418897) translate(317.59874131944446 41.89214409722222)"/></g><path d="M1767.1 2782.72a6 6 0 0 1 6-6h280.42a6 6 0 0 1 6 6v27.6a6 6 0 0 1-6 6h-280.4a6 6 0 0 1-6-6z" fill="none"/><g><use xlink:href="#A" transform="matrix(1,0,0,1,1772.1056455244927,2781.7230570601723) translate(0 23.89214409722222)"/><use xlink:href="#e" transform="matrix(1,0,0,1,1772.1056455244927,2781.7230570601723) translate(151.93033854166666 23.89214409722222)"/><use xlink:href="#B" transform="matrix(1,0,0,1,1772.1056455244927,2781.7230570601723) translate(187.68988715277777 23.89214409722222)"/></g><path d="M816.3 2354.5h489.52" stroke="#3a414a" stroke-width="3" fill="none"/><path d="M816.34 2355.97h-1.54v-2.95h1.54z" stroke="#3a414a" stroke-width=".05" fill="#3a414a"/><path d="M1320.3 2354.5l-12.98 7.5v-15z" stroke="#3a414a" stroke-width="3" fill="#3a414a"/><defs><path d="M657 26c-323 0-524-166-541-416h195c15 169 171 246 346 246 202 0 356-106 356-265 5-203-294-238-475-293-239-73-380-191-380-389 0-252 224-419 512-419 294 0 499 171 508 396H992c-17-145-151-228-328-228-193 0-321 102-321 242 0 156 175 211 284 241l149 41c160 44 422 134 422 412 0 244-197 432-541 432" id="C"/><path d="M158 0v-1118h180V0H158zm91-1301c-68 0-125-53-125-119s57-119 125-119c69 0 126 53 126 119s-57 119-126 119" id="D"/><path d="M538 24C308 24 148-78 108-271l171-41c32 123 123 178 257 178 156 0 256-77 256-169 0-77-54-128-164-154l-186-44c-203-48-300-148-300-305 0-192 176-326 414-326 230 0 351 112 402 269l-163 42c-31-80-94-158-238-158-133 0-233 69-233 162 0 83 57 129 188 160l169 40c203 48 298 149 298 302 0 196-179 339-441 339" id="E"/><path d="M598-1118v154H368v674c0 100 37 144 132 144 23 0 62-6 92-12L629-6c-37 13-88 20-134 20-193 0-307-107-307-290v-688H20v-154h168v-266h180v266h230" id="F"/><path d="M628 24c-324 0-524-230-524-574 0-343 198-582 503-582 237 0 487 146 487 559v75H286c9 234 145 362 343 362 132 0 231-58 273-172l174 48C1024-91 857 24 628 24zM287-650h624c-17-190-120-322-304-322-192 0-309 151-320 322" id="G"/><path d="M158 0v-1118h175l1 205c55-151 181-225 313-225 147 0 245 90 285 228 53-141 190-228 352-228 194 0 352 125 352 384V0h-181v-749c0-161-105-225-225-225-151 0-243 103-243 244V0H807v-767c0-124-93-207-219-207-131 0-250 92-250 270V0H158" id="H"/><path d="M471 26C259 26 90-98 90-318c0-256 228-303 435-329 202-27 287-16 287-108 0-139-79-219-234-219-161 0-248 86-283 164l-173-57c86-203 278-265 451-265 150 0 419 46 419 395V0H815v-152h-12C765-73 660 26 471 26zm31-159c199 0 310-134 310-271v-155c-30 35-226 55-295 64-131 17-246 59-246 186 0 116 97 176 231 176" id="I"/><g id="a"><use transform="matrix(0.015190972222222224,0,0,0.015190972222222224,0,0)" xlink:href="#C"/><use transform="matrix(0.015190972222222224,0,0,0.015190972222222224,19.960937500000004,0)" xlink:href="#D"/><use transform="matrix(0.015190972222222224,0,0,0.015190972222222224,27.49565972222223,0)" xlink:href="#E"/><use transform="matrix(0.015190972222222224,0,0,0.015190972222222224,43.91710069444446,0)" xlink:href="#F"/><use transform="matrix(0.015190972222222224,0,0,0.015190972222222224,53.7912326388889,0)" xlink:href="#G"/><use transform="matrix(0.015190972222222224,0,0,0.015190972222222224,71.92925347222223,0)" xlink:href="#H"/><use transform="matrix(0.015190972222222224,0,0,0.015190972222222224,99.1818576388889,0)" xlink:href="#I"/></g><path d="M783 20c-382 0-661-292-661-764 0-473 279-766 661-766 302 0 548 182 601 489h-190c-42-204-217-313-411-313-268 0-476 208-476 590 0 381 209 588 476 588 195 0 369-110 411-313h190c-52 303-296 489-601 489" id="J"/><path d="M338-1490V0H158v-1490h180" id="K"/><path d="M338-670V0H158v-1118h173l1 207c72-158 192-221 342-221 226 0 378 139 378 422V0H872v-695c0-172-96-275-252-275-161 0-282 109-282 300" id="L"/><g id="b"><use transform="matrix(0.0126953125,0,0,0.0126953125,0,0)" xlink:href="#J"/><use transform="matrix(0.0126953125,0,0,0.0126953125,18.9921875,0)" xlink:href="#K"/><use transform="matrix(0.0126953125,0,0,0.0126953125,25.2890625,0)" xlink:href="#D"/><use transform="matrix(0.0126953125,0,0,0.0126953125,31.5859375,0)" xlink:href="#G"/><use transform="matrix(0.0126953125,0,0,0.0126953125,46.744140625,0)" xlink:href="#L"/><use transform="matrix(0.0126953125,0,0,0.0126953125,62.10546875,0)" xlink:href="#F"/><use transform="matrix(0.0126953125,0,0,0.0126953125,70.357421875,0)" xlink:href="#G"/></g><path d="M52 0l541-1490h220L1361 0h-200l-149-416H398L254 0H52zm404-582h497c-103-290-145-390-251-756-108 377-145 460-246 756" id="M"/><path d="M577 24c-279 0-473-224-473-580 0-354 195-576 474-576 218 0 287 134 324 193h14v-551h180V0H922v-173h-20C865-111 790 24 577 24zm27-161c203 0 314-172 314-421 0-247-108-413-314-413-212 0-317 181-317 413 0 235 108 421 317 421" id="N"/><path d="M158 0v-1118h174v172h12c41-113 157-188 290-188 26 0 70 2 91 3v181c-11-2-60-10-108-10-161 0-279 109-279 260V0H158" id="O"/><path d="M613 24c-304 0-509-231-509-576 0-350 205-580 509-580 305 0 511 230 511 580 0 345-206 576-511 576zm0-161c226 0 329-195 329-415 0-222-103-419-329-419-223 0-326 196-326 419 0 220 103 415 326 415" id="P"/><g id="c"><use transform="matrix(0.0126953125,0,0,0.0126953125,0,0)" xlink:href="#M"/><use transform="matrix(0.0126953125,0,0,0.0126953125,17.9384765625,0)" xlink:href="#N"/><use transform="matrix(0.0126953125,0,0,0.0126953125,33.8583984375,0)" xlink:href="#H"/><use transform="matrix(0.0126953125,0,0,0.0126953125,56.6337890625,0)" xlink:href="#D"/><use transform="matrix(0.0126953125,0,0,0.0126953125,62.9306640625,0)" xlink:href="#L"/><use transform="matrix(0.0126953125,0,0,0.0126953125,78.2919921875,0)" xlink:href="#D"/><use transform="matrix(0.0126953125,0,0,0.0126953125,84.5888671875,0)" xlink:href="#E"/><use transform="matrix(0.0126953125,0,0,0.0126953125,98.3125,0)" xlink:href="#F"/><use transform="matrix(0.0126953125,0,0,0.0126953125,106.818359375,0)" xlink:href="#O"/><use transform="matrix(0.0126953125,0,0,0.0126953125,116.6064453125,0)" xlink:href="#I"/><use transform="matrix(0.0126953125,0,0,0.0126953125,131.2060546875,0)" xlink:href="#N"/><use transform="matrix(0.0126953125,0,0,0.0126953125,147.1259765625,0)" xlink:href="#P"/><use transform="matrix(0.0126953125,0,0,0.0126953125,162.7158203125,0)" xlink:href="#O"/></g><path fill="#3a414a" d="M135 0v-1490h581c339 0 533 210 533 503 0 295-197 500-540 500H440V0H135zm305-733h220c186 0 274-104 274-254s-88-251-275-251H440v505" id="Q"/><path fill="#3a414a" d="M633 22C291 22 81-200 81-553c0-345 210-579 537-579 292 0 525 185 525 567v84H378c7 183 109 277 260 277 105 0 184-46 216-132l272 51C1071-99 893 22 633 22zM380-669h474c-15-146-94-237-233-237-143 0-229 99-241 237" id="R"/><path fill="#3a414a" d="M537 19C279 19 81-185 81-557c0-382 206-575 454-575 190 0 278 113 318 202h10v-560h300V0H868v-179h-15C812-89 719 19 537 19zm92-241c153 0 240-134 240-336 0-203-86-334-240-334-158 0-240 138-240 334 0 197 84 336 240 336" id="S"/><path fill="#3a414a" d="M128 0v-1118h300V0H128zm150-1264c-91 0-165-68-165-154 0-85 74-154 165-154 90 0 165 69 165 154 0 86-75 154-165 154" id="T"/><path fill="#3a414a" d="M628 22C291 22 81-210 81-554c0-346 210-578 547-578 336 0 547 232 547 578 0 344-211 576-547 576zm0-236c160 0 242-146 242-341 0-197-82-341-242-341S387-753 387-555c0 195 81 341 241 341" id="U"/><g id="d"><use transform="matrix(0.01193576388888889,0,0,0.01193576388888889,0,0)" xlink:href="#Q"/><use transform="matrix(0.01193576388888889,0,0,0.01193576388888889,15.635850694444446,0)" xlink:href="#R"/><use transform="matrix(0.01193576388888889,0,0,0.01193576388888889,30.197482638888893,0)" xlink:href="#S"/><use transform="matrix(0.01193576388888889,0,0,0.01193576388888889,45.60655381944445,0)" xlink:href="#T"/><use transform="matrix(0.01193576388888889,0,0,0.01193576388888889,52.23090277777778,0)" xlink:href="#S"/><use transform="matrix(0.01193576388888889,0,0,0.01193576388888889,67.63997395833334,0)" xlink:href="#U"/></g><g id="e"><use transform="matrix(0.01193576388888889,0,0,0.01193576388888889,0,0)" xlink:href="#S"/><use transform="matrix(0.01193576388888889,0,0,0.01193576388888889,15.409071180555557,0)" xlink:href="#R"/></g><path fill="#3a414a" d="M681 22C323 22 94-145 85-462h297c10 151 131 226 296 226 163 0 271-77 271-190 0-102-95-149-257-189l-164-41c-252-61-403-188-403-405 0-269 236-449 560-449 330 0 546 183 551 445H941c-11-119-106-188-259-188-156 0-244 72-244 172-3 156 226 185 373 221 250 61 445 186 445 436 0 271-213 446-575 446" id="V"/><path fill="#3a414a" d="M128 0v-1118h290v195h12c54-169 184-238 367-200v268c-27-8-86-15-130-15-138 0-239 95-239 234V0H128" id="W"/><path fill="#3a414a" d="M443 0L31-1118h319c90 293 199 572 268 885 66-313 175-593 264-885h315L784 0H443" id="X"/><path fill="#3a414a" d="M499 418V299c80-5 216 24 216-62 0-44-25-60-89-60h-91l26-158C264-10 81-233 81-554c0-346 210-578 547-578 265 0 455 142 497 372l-279 52c-25-116-99-188-215-188-160 0-244 139-244 341 0 200 84 341 244 341 116 0 193-74 217-195l279 51C1088-140 923 0 685 20l-4 68c126-6 197 51 197 157 0 123-72 173-239 173H499" id="Y"/><g id="f"><use transform="matrix(0.01193576388888889,0,0,0.01193576388888889,0,0)" xlink:href="#V"/><use transform="matrix(0.01193576388888889,0,0,0.01193576388888889,16.005859375,0)" xlink:href="#R"/><use transform="matrix(0.01193576388888889,0,0,0.01193576388888889,30.567491319444446,0)" xlink:href="#W"/><use transform="matrix(0.01193576388888889,0,0,0.01193576388888889,40.90386284722222,0)" xlink:href="#X"/><use transform="matrix(0.01193576388888889,0,0,0.01193576388888889,55.560980902777786,0)" xlink:href="#T"/><use transform="matrix(0.01193576388888889,0,0,0.01193576388888889,62.185329861111114,0)" xlink:href="#Y"/><use transform="matrix(0.01193576388888889,0,0,0.01193576388888889,76.56792534722223,0)" xlink:href="#U"/></g><path fill="#3a414a" d="M135 0v-1490h581c339 0 533 192 533 485 0 204-94 351-264 424L1302 0H964L680-532H440V0H135zm305-779h220c186 0 274-77 274-226 0-150-88-233-275-233H440v459" id="Z"/><path fill="#3a414a" d="M628 22C291 22 81-210 81-554c0-346 210-578 547-578 265 0 455 142 497 372l-279 52c-25-116-99-188-215-188-160 0-244 139-244 341 0 200 84 341 244 341 116 0 193-74 217-195l279 51C1085-123 896 22 628 22" id="aa"/><path fill="#3a414a" d="M428-1490V0H128v-1490h300" id="ab"/><path fill="#3a414a" d="M440 22C227 22 68-92 68-313c0-250 202-322 422-343 195-21 271-24 271-105 0-95-63-149-175-149-116 0-187 57-211 129l-275-46c57-194 237-305 487-305 240 0 474 108 474 379V0H777v-155h-10C713-51 605 22 440 22zm85-211c140 0 238-93 238-211v-121c-37 26-156 42-222 51-111 16-185 59-185 149 0 87 70 132 169 132" id="ac"/><path fill="#3a414a" d="M128 0v-1118h278l12 217c60-163 185-234 319-234 143 0 236 81 288 251 63-172 205-251 359-251 205 0 357 138 357 381V0h-301v-697c0-126-76-187-177-187-114 0-184 79-184 196V0H789v-705c0-109-72-179-174-179-106 0-187 74-187 208V0H128" id="ad"/><path fill="#3a414a" d="M440 22C227 22 68-92 68-313c0-250 202-322 422-343 195-21 271-24 271-105 0-95-63-149-175-149-116 0-187 57-211 129l-275-46c57-194 237-305 487-305 240 0 474 108 474 379V0H777v-155h-10C713-51 605 22 440 22zm290-1304c-128 0-195-103-258-103-42 0-63 39-65 97H242c4-169 84-265 208-265 129 0 189 103 257 103 45 0 63-33 68-97h162c-3 169-89 265-207 265zM525-189c140 0 238-93 238-211v-121c-37 26-156 42-222 51-111 16-185 59-185 149 0 87 70 132 169 132" id="ae"/><g id="g"><use transform="matrix(0.01193576388888889,0,0,0.01193576388888889,0,0)" xlink:href="#Z"/><use transform="matrix(0.01193576388888889,0,0,0.01193576388888889,15.755208333333334,0)" xlink:href="#R"/><use transform="matrix(0.01193576388888889,0,0,0.01193576388888889,30.31684027777778,0)" xlink:href="#aa"/><use transform="matrix(0.01193576388888889,0,0,0.01193576388888889,44.69943576388889,0)" xlink:href="#ab"/><use transform="matrix(0.01193576388888889,0,0,0.01193576388888889,51.32378472222223,0)" xlink:href="#ac"/><use transform="matrix(0.01193576388888889,0,0,0.01193576388888889,65.51540798611111,0)" xlink:href="#ad"/><use transform="matrix(0.01193576388888889,0,0,0.01193576388888889,87.82335069444446,0)" xlink:href="#ac"/><use transform="matrix(0.01193576388888889,0,0,0.01193576388888889,102.01497395833334,0)" xlink:href="#Y"/><use transform="matrix(0.01193576388888889,0,0,0.01193576388888889,116.63628472222223,0)" xlink:href="#ae"/><use transform="matrix(0.01193576388888889,0,0,0.01193576388888889,130.82790798611111,0)" xlink:href="#U"/></g><path fill="#3a414a" d="M768-1560L288 224H28l480-1784h260" id="af"/><use transform="matrix(0.01193576388888889,0,0,0.01193576388888889,0,0)" xlink:href="#af" id="h"/><path fill="#3a414a" d="M683-1118v229H474v562c0 71 29 104 102 104 23 0 73-7 95-13l43 225C647 9 580 16 520 16 296 16 174-96 174-301v-588H20v-229h154v-266h300v266h209" id="ag"/><g id="i"><use transform="matrix(0.01193576388888889,0,0,0.01193576388888889,0,0)" xlink:href="#V"/><use transform="matrix(0.01193576388888889,0,0,0.01193576388888889,16.005859375,0)" xlink:href="#U"/><use transform="matrix(0.01193576388888889,0,0,0.01193576388888889,30.997178819444446,0)" xlink:href="#ab"/><use transform="matrix(0.01193576388888889,0,0,0.01193576388888889,37.62152777777778,0)" xlink:href="#T"/><use transform="matrix(0.01193576388888889,0,0,0.01193576388888889,44.245876736111114,0)" xlink:href="#aa"/><use transform="matrix(0.01193576388888889,0,0,0.01193576388888889,58.62847222222223,0)" xlink:href="#T"/><use transform="matrix(0.01193576388888889,0,0,0.01193576388888889,65.25282118055556,0)" xlink:href="#ag"/><use transform="matrix(0.01193576388888889,0,0,0.01193576388888889,74.32400173611111,0)" xlink:href="#ac"/><use transform="matrix(0.01193576388888889,0,0,0.01193576388888889,88.515625,0)" xlink:href="#Y"/><use transform="matrix(0.01193576388888889,0,0,0.01193576388888889,103.13693576388887,0)" xlink:href="#ae"/><use transform="matrix(0.01193576388888889,0,0,0.01193576388888889,117.32855902777777,0)" xlink:href="#U"/></g><g id="j"><use transform="matrix(0.01193576388888889,0,0,0.01193576388888889,0,0)" xlink:href="#S"/><use transform="matrix(0.01193576388888889,0,0,0.01193576388888889,15.409071180555557,0)" xlink:href="#R"/></g><path fill="#3a414a" d="M135 0v-1490h997v253H440v360h640v249H440v375h694V0H135" id="ah"/><path fill="#3a414a" d="M572 22C302 22 117-98 78-306l279-48c29 105 101 156 224 156 114 0 185-48 185-115 0-118-228-130-337-155-215-49-322-150-322-317 0-215 187-347 470-347 265 0 424 116 466 298l-266 47c-24-76-87-130-196-130-98 0-174 46-174 113 0 56 38 95 144 117l201 40c216 44 320 143 320 302 0 220-207 367-500 367" id="ai"/><path fill="#3a414a" d="M428-647V0H128v-1118h283l4 231c63-156 176-245 348-245 232 0 384 159 384 421V0H847v-659c0-139-76-222-202-222-128 0-217 86-217 234" id="aj"/><g id="k"><use transform="matrix(0.01193576388888889,0,0,0.01193576388888889,0,0)" xlink:href="#ah"/><use transform="matrix(0.01193576388888889,0,0,0.01193576388888889,14.848090277777779,0)" xlink:href="#ai"/><use transform="matrix(0.01193576388888889,0,0,0.01193576388888889,28.538411458333336,0)" xlink:href="#ag"/><use transform="matrix(0.01193576388888889,0,0,0.01193576388888889,37.25151909722223,0)" xlink:href="#U"/><use transform="matrix(0.01193576388888889,0,0,0.01193576388888889,52.24283854166667,0)" xlink:href="#W"/><use transform="matrix(0.01193576388888889,0,0,0.01193576388888889,62.376302083333336,0)" xlink:href="#aj"/><use transform="matrix(0.01193576388888889,0,0,0.01193576388888889,77.59440104166667,0)" xlink:href="#U"/></g><path fill="#3a414a" d="M49 0l509-1490h400L1480 0h-339l-115-346H497L386 0H49zm524-585h374c-75-213-124-402-192-666-66 268-110 453-182 666" id="ak"/><g id="l"><use transform="matrix(0.01193576388888889,0,0,0.01193576388888889,0,0)" xlink:href="#ak"/><use transform="matrix(0.01193576388888889,0,0,0.01193576388888889,16.590711805555557,0)" xlink:href="#X"/><use transform="matrix(0.01193576388888889,0,0,0.01193576388888889,31.009114583333336,0)" xlink:href="#ac"/><use transform="matrix(0.01193576388888889,0,0,0.01193576388888889,45.20073784722223,0)" xlink:href="#ab"/><use transform="matrix(0.01193576388888889,0,0,0.01193576388888889,51.82508680555556,0)" xlink:href="#T"/><use transform="matrix(0.01193576388888889,0,0,0.01193576388888889,58.44943576388891,0)" xlink:href="#ac"/><use transform="matrix(0.01193576388888889,0,0,0.01193576388888889,72.64105902777779,0)" xlink:href="#Y"/><use transform="matrix(0.01193576388888889,0,0,0.01193576388888889,87.26236979166667,0)" xlink:href="#ae"/><use transform="matrix(0.01193576388888889,0,0,0.01193576388888889,101.45399305555556,0)" xlink:href="#U"/></g><g id="m"><use transform="matrix(0.01193576388888889,0,0,0.01193576388888889,0,0)" xlink:href="#S"/><use transform="matrix(0.01193576388888889,0,0,0.01193576388888889,15.409071180555557,0)" xlink:href="#U"/></g><path d="M180 0v-1490h510c348 0 508 209 508 474 0 266-160 477-507 477H370V0H180zm190-706h312c236 0 327-133 327-310 0-176-91-307-329-307H370v617" id="al"/><g id="n"><use transform="matrix(0.0126953125,0,0,0.0126953125,0,0)" xlink:href="#al"/><use transform="matrix(0.0126953125,0,0,0.0126953125,16.60546875,0)" xlink:href="#O"/><use transform="matrix(0.0126953125,0,0,0.0126953125,25.9619140625,0)" xlink:href="#G"/><use transform="matrix(0.0126953125,0,0,0.0126953125,41.1201171875,0)" xlink:href="#E"/><use transform="matrix(0.0126953125,0,0,0.0126953125,54.84375,0)" xlink:href="#F"/><use transform="matrix(0.0126953125,0,0,0.0126953125,63.4765625,0)" xlink:href="#I"/><use transform="matrix(0.0126953125,0,0,0.0126953125,78.076171875,0)" xlink:href="#N"/><use transform="matrix(0.0126953125,0,0,0.0126953125,93.99609375,0)" xlink:href="#P"/><use transform="matrix(0.0126953125,0,0,0.0126953125,109.5859375,0)" xlink:href="#O"/></g><path fill="#3a414a" d="M786 20C389 20 94-260 94-744c0-487 299-766 692-766 339 0 597 194 641 529h-309c-28-162-156-258-326-258-233 0-388 179-388 495 0 323 157 493 387 493 170 0 298-97 328-259h309c-34 277-266 530-642 530" id="am"/><path fill="#3a414a" d="M428-647V0H128v-1490h294v586c65-146 175-228 341-228 232 0 385 159 385 421V0H847v-659c0-139-76-222-202-222-128 0-217 86-217 234" id="an"/><g id="o"><use transform="matrix(0.01193576388888889,0,0,0.01193576388888889,0,0)" xlink:href="#am"/><use transform="matrix(0.01193576388888889,0,0,0.01193576388888889,18.082682291666668,0)" xlink:href="#an"/><use transform="matrix(0.01193576388888889,0,0,0.01193576388888889,33.30078125,0)" xlink:href="#ac"/><use transform="matrix(0.01193576388888889,0,0,0.01193576388888889,47.492404513888886,0)" xlink:href="#ad"/><use transform="matrix(0.01193576388888889,0,0,0.01193576388888889,69.80034722222223,0)" xlink:href="#ac"/><use transform="matrix(0.01193576388888889,0,0,0.01193576388888889,83.99197048611111,0)" xlink:href="#S"/><use transform="matrix(0.01193576388888889,0,0,0.01193576388888889,99.40104166666667,0)" xlink:href="#U"/></g><path fill="#3a414a" d="M659 0H135v-1490h529c448 0 721 280 721 744 0 466-273 746-726 746zM440-263h204c287 0 437-148 437-483 0-333-150-481-435-481H440v964" id="ao"/><g id="p"><use transform="matrix(0.01193576388888889,0,0,0.01193576388888889,0,0)" xlink:href="#ao"/><use transform="matrix(0.01193576388888889,0,0,0.01193576388888889,17.652994791666668,0)" xlink:href="#R"/><use transform="matrix(0.01193576388888889,0,0,0.01193576388888889,32.214626736111114,0)" xlink:href="#aa"/><use transform="matrix(0.01193576388888889,0,0,0.01193576388888889,46.59722222222223,0)" xlink:href="#T"/><use transform="matrix(0.01193576388888889,0,0,0.01193576388888889,53.22157118055556,0)" xlink:href="#ai"/><use transform="matrix(0.01193576388888889,0,0,0.01193576388888889,66.91189236111111,0)" xlink:href="#ae"/><use transform="matrix(0.01193576388888889,0,0,0.01193576388888889,81.103515625,0)" xlink:href="#U"/></g><g id="q"><use transform="matrix(0.01193576388888889,0,0,0.01193576388888889,0,0)" xlink:href="#Q"/><use transform="matrix(0.01193576388888889,0,0,0.01193576388888889,15.838758680555557,0)" xlink:href="#W"/><use transform="matrix(0.01193576388888889,0,0,0.01193576388888889,25.196397569444446,0)" xlink:href="#R"/><use transform="matrix(0.01193576388888889,0,0,0.01193576388888889,39.75802951388889,0)" xlink:href="#ai"/><use transform="matrix(0.01193576388888889,0,0,0.01193576388888889,53.44835069444445,0)" xlink:href="#ag"/><use transform="matrix(0.01193576388888889,0,0,0.01193576388888889,62.51953125000001,0)" xlink:href="#ac"/><use transform="matrix(0.01193576388888889,0,0,0.01193576388888889,76.71115451388889,0)" xlink:href="#Y"/><use transform="matrix(0.01193576388888889,0,0,0.01193576388888889,91.33246527777777,0)" xlink:href="#ae"/><use transform="matrix(0.01193576388888889,0,0,0.01193576388888889,105.52408854166666,0)" xlink:href="#U"/></g><path fill="#3a414a" d="M169-607c0-330 107-732 258-974h279c-145 311-231 674-231 974 0 262 67 512 231 886H427C258-1 169-307 169-607" id="ap"/><path fill="#3a414a" d="M127-1118h301V57c1 278-186 374-478 361V182c116 8 177-28 177-129v-1171zm151-146c-90 0-165-68-165-154 0-85 75-154 165-154s165 69 165 154c0 86-75 154-165 154" id="aq"/><path fill="#3a414a" d="M67 279c166-379 230-627 230-886 0-300-86-663-230-974h278c151 241 258 644 258 974 0 302-90 608-258 886H67" id="ar"/><g id="r"><use transform="matrix(0.01193576388888889,0,0,0.01193576388888889,0,0)" xlink:href="#ap"/><use transform="matrix(0.01193576388888889,0,0,0.01193576388888889,9.214409722222223,0)" xlink:href="#ak"/><use transform="matrix(0.01193576388888889,0,0,0.01193576388888889,26.903211805555557,0)" xlink:href="#aa"/><use transform="matrix(0.01193576388888889,0,0,0.01193576388888889,41.28580729166667,0)" xlink:href="#R"/><use transform="matrix(0.01193576388888889,0,0,0.01193576388888889,55.847439236111114,0)" xlink:href="#T"/><use transform="matrix(0.01193576388888889,0,0,0.01193576388888889,62.47178819444445,0)" xlink:href="#ag"/><use transform="matrix(0.01193576388888889,0,0,0.01193576388888889,71.54296875,0)" xlink:href="#ac"/><use transform="matrix(0.01193576388888889,0,0,0.01193576388888889,85.73459201388889,0)" xlink:href="#af"/><use transform="matrix(0.01193576388888889,0,0,0.01193576388888889,95.22352430555556,0)" xlink:href="#Z"/><use transform="matrix(0.01193576388888889,0,0,0.01193576388888889,110.97873263888887,0)" xlink:href="#R"/><use transform="matrix(0.01193576388888889,0,0,0.01193576388888889,125.54036458333333,0)" xlink:href="#aq"/><use transform="matrix(0.01193576388888889,0,0,0.01193576388888889,132.16471354166666,0)" xlink:href="#R"/><use transform="matrix(0.01193576388888889,0,0,0.01193576388888889,146.72634548611111,0)" xlink:href="#T"/><use transform="matrix(0.01193576388888889,0,0,0.01193576388888889,153.35069444444446,0)" xlink:href="#ag"/><use transform="matrix(0.01193576388888889,0,0,0.01193576388888889,162.421875,0)" xlink:href="#ac"/><use transform="matrix(0.01193576388888889,0,0,0.01193576388888889,176.61349826388889,0)" xlink:href="#ar"/></g><path fill="#3a414a" d="M750-1118v229H516V0H217v-889H20v-229h197v-86c0-238 156-356 363-356 94 0 178 20 215 31l-54 226c-25-7-61-15-100-15-123-3-131 84-125 200h234" id="as"/><g id="s"><use transform="matrix(0.01193576388888889,0,0,0.01193576388888889,0,0)" xlink:href="#am"/><use transform="matrix(0.01193576388888889,0,0,0.01193576388888889,18.082682291666668,0)" xlink:href="#U"/><use transform="matrix(0.01193576388888889,0,0,0.01193576388888889,33.074001736111114,0)" xlink:href="#aj"/><use transform="matrix(0.01193576388888889,0,0,0.01193576388888889,48.29210069444445,0)" xlink:href="#as"/><use transform="matrix(0.01193576388888889,0,0,0.01193576388888889,58.22265625000001,0)" xlink:href="#T"/><use transform="matrix(0.01193576388888889,0,0,0.01193576388888889,64.84700520833334,0)" xlink:href="#W"/><use transform="matrix(0.01193576388888889,0,0,0.01193576388888889,74.98046875,0)" xlink:href="#ad"/><use transform="matrix(0.01193576388888889,0,0,0.01193576388888889,97.28841145833334,0)" xlink:href="#ac"/><use transform="matrix(0.01193576388888889,0,0,0.01193576388888889,111.48003472222223,0)" xlink:href="#Y"/><use transform="matrix(0.01193576388888889,0,0,0.01193576388888889,126.10134548611111,0)" xlink:href="#ae"/><use transform="matrix(0.01193576388888889,0,0,0.01193576388888889,140.29296875,0)" xlink:href="#U"/></g><path fill="#3a414a" d="M42 0l360-574-338-544h324c72 124 151 261 209 394 58-134 140-271 215-394h318L785-570 1146 0H824c-79-136-169-280-234-425C528-278 439-134 360 0H42" id="at"/><path fill="#3a414a" d="M513 14c-232 0-385-159-385-421v-711h300v659c0 139 76 222 202 222 127 0 217-86 217-234v-647h301V0H864l-4-232C797-74 683 14 513 14" id="au"/><g id="t"><use transform="matrix(0.01193576388888889,0,0,0.01193576388888889,0,0)" xlink:href="#ah"/><use transform="matrix(0.01193576388888889,0,0,0.01193576388888889,14.848090277777779,0)" xlink:href="#at"/><use transform="matrix(0.01193576388888889,0,0,0.01193576388888889,28.538411458333336,0)" xlink:href="#R"/><use transform="matrix(0.01193576388888889,0,0,0.01193576388888889,43.100043402777786,0)" xlink:href="#aa"/><use transform="matrix(0.01193576388888889,0,0,0.01193576388888889,57.48263888888891,0)" xlink:href="#au"/><use transform="matrix(0.01193576388888889,0,0,0.01193576388888889,72.70073784722223,0)" xlink:href="#Y"/><use transform="matrix(0.01193576388888889,0,0,0.01193576388888889,87.32204861111111,0)" xlink:href="#ae"/><use transform="matrix(0.01193576388888889,0,0,0.01193576388888889,101.51367187500001,0)" xlink:href="#U"/></g><path fill="#3a414a" d="M128 418v-1536h295v188h14c41-89 129-202 319-202 248 0 453 193 453 575 0 372-197 576-455 576-183 0-275-108-317-198h-9v597H128zm534-640c156 0 240-139 240-336 0-196-83-334-240-334-154 0-241 131-241 334 0 202 88 336 241 336" id="av"/><g id="u"><use transform="matrix(0.01193576388888889,0,0,0.01193576388888889,0,0)" xlink:href="#Z"/><use transform="matrix(0.01193576388888889,0,0,0.01193576388888889,15.755208333333334,0)" xlink:href="#R"/><use transform="matrix(0.01193576388888889,0,0,0.01193576388888889,30.31684027777778,0)" xlink:href="#ai"/><use transform="matrix(0.01193576388888889,0,0,0.01193576388888889,44.00716145833334,0)" xlink:href="#av"/><use transform="matrix(0.01193576388888889,0,0,0.01193576388888889,59.41623263888891,0)" xlink:href="#U"/><use transform="matrix(0.01193576388888889,0,0,0.01193576388888889,74.40755208333334,0)" xlink:href="#ai"/><use transform="matrix(0.01193576388888889,0,0,0.01193576388888889,88.0978732638889,0)" xlink:href="#ag"/><use transform="matrix(0.01193576388888889,0,0,0.01193576388888889,97.16905381944446,0)" xlink:href="#ac"/></g><g id="v"><use transform="matrix(0.01193576388888889,0,0,0.01193576388888889,0,0)" xlink:href="#ak"/><use transform="matrix(0.01193576388888889,0,0,0.01193576388888889,17.688802083333336,0)" xlink:href="#S"/><use transform="matrix(0.01193576388888889,0,0,0.01193576388888889,33.09787326388889,0)" xlink:href="#ad"/><use transform="matrix(0.01193576388888889,0,0,0.01193576388888889,55.40581597222223,0)" xlink:href="#T"/><use transform="matrix(0.01193576388888889,0,0,0.01193576388888889,62.03016493055556,0)" xlink:href="#aj"/><use transform="matrix(0.01193576388888889,0,0,0.01193576388888889,77.2482638888889,0)" xlink:href="#T"/><use transform="matrix(0.01193576388888889,0,0,0.01193576388888889,83.87261284722223,0)" xlink:href="#ai"/><use transform="matrix(0.01193576388888889,0,0,0.01193576388888889,97.56293402777779,0)" xlink:href="#ag"/><use transform="matrix(0.01193576388888889,0,0,0.01193576388888889,106.51475694444446,0)" xlink:href="#W"/><use transform="matrix(0.01193576388888889,0,0,0.01193576388888889,116.1349826388889,0)" xlink:href="#ac"/><use transform="matrix(0.01193576388888889,0,0,0.01193576388888889,130.3266059027778,0)" xlink:href="#ag"/><use transform="matrix(0.01193576388888889,0,0,0.01193576388888889,139.27842881944446,0)" xlink:href="#T"/><use transform="matrix(0.01193576388888889,0,0,0.01193576388888889,145.9027777777778,0)" xlink:href="#X"/><use transform="matrix(0.01193576388888889,0,0,0.01193576388888889,160.3211805555556,0)" xlink:href="#ac"/></g><path fill="#3a414a" d="M754 19C571 19 479-89 437-179h-14V0H128v-1490h300v560h9c41-89 129-202 319-202 248 0 453 193 453 575 0 372-197 576-455 576zm-92-241c156 0 240-139 240-336 0-196-83-334-240-334-154 0-241 131-241 334 0 202 88 336 241 336" id="aw"/><g id="w"><use transform="matrix(0.01193576388888889,0,0,0.01193576388888889,0,0)" xlink:href="#Z"/><use transform="matrix(0.01193576388888889,0,0,0.01193576388888889,15.755208333333334,0)" xlink:href="#R"/><use transform="matrix(0.01193576388888889,0,0,0.01193576388888889,30.31684027777778,0)" xlink:href="#aa"/><use transform="matrix(0.01193576388888889,0,0,0.01193576388888889,44.69943576388889,0)" xlink:href="#R"/><use transform="matrix(0.01193576388888889,0,0,0.01193576388888889,59.261067708333336,0)" xlink:href="#aw"/><use transform="matrix(0.01193576388888889,0,0,0.01193576388888889,74.6701388888889,0)" xlink:href="#T"/><use transform="matrix(0.01193576388888889,0,0,0.01193576388888889,81.29448784722223,0)" xlink:href="#ad"/><use transform="matrix(0.01193576388888889,0,0,0.01193576388888889,103.60243055555556,0)" xlink:href="#R"/><use transform="matrix(0.01193576388888889,0,0,0.01193576388888889,118.16406250000001,0)" xlink:href="#aj"/><use transform="matrix(0.01193576388888889,0,0,0.01193576388888889,133.38216145833334,0)" xlink:href="#ag"/><use transform="matrix(0.01193576388888889,0,0,0.01193576388888889,142.09526909722223,0)" xlink:href="#U"/></g><g id="x"><use transform="matrix(0.01193576388888889,0,0,0.01193576388888889,0,0)" xlink:href="#av"/><use transform="matrix(0.01193576388888889,0,0,0.01193576388888889,15.409071180555557,0)" xlink:href="#R"/><use transform="matrix(0.01193576388888889,0,0,0.01193576388888889,29.970703125000004,0)" xlink:href="#ab"/><use transform="matrix(0.01193576388888889,0,0,0.01193576388888889,36.595052083333336,0)" xlink:href="#U"/></g><g id="y"><use transform="matrix(0.01193576388888889,0,0,0.01193576388888889,0,0)" xlink:href="#V"/><use transform="matrix(0.01193576388888889,0,0,0.01193576388888889,16.005859375,0)" xlink:href="#R"/><use transform="matrix(0.01193576388888889,0,0,0.01193576388888889,30.567491319444446,0)" xlink:href="#W"/><use transform="matrix(0.01193576388888889,0,0,0.01193576388888889,40.90386284722222,0)" xlink:href="#X"/><use transform="matrix(0.01193576388888889,0,0,0.01193576388888889,55.560980902777786,0)" xlink:href="#T"/><use transform="matrix(0.01193576388888889,0,0,0.01193576388888889,62.185329861111114,0)" xlink:href="#Y"/><use transform="matrix(0.01193576388888889,0,0,0.01193576388888889,76.56792534722223,0)" xlink:href="#U"/></g><g id="z"><use transform="matrix(0.01193576388888889,0,0,0.01193576388888889,0,0)" xlink:href="#Q"/><use transform="matrix(0.01193576388888889,0,0,0.01193576388888889,15.838758680555557,0)" xlink:href="#W"/><use transform="matrix(0.01193576388888889,0,0,0.01193576388888889,25.196397569444446,0)" xlink:href="#R"/><use transform="matrix(0.01193576388888889,0,0,0.01193576388888889,39.75802951388889,0)" xlink:href="#ai"/><use transform="matrix(0.01193576388888889,0,0,0.01193576388888889,53.44835069444445,0)" xlink:href="#ag"/><use transform="matrix(0.01193576388888889,0,0,0.01193576388888889,62.51953125000001,0)" xlink:href="#ac"/><use transform="matrix(0.01193576388888889,0,0,0.01193576388888889,76.71115451388889,0)" xlink:href="#S"/><use transform="matrix(0.01193576388888889,0,0,0.01193576388888889,92.12022569444444,0)" xlink:href="#U"/></g><path fill="#3a414a" d="M628 22C291 22 81-210 81-554c0-346 210-578 547-578 336 0 547 232 547 578 0 344-211 576-547 576zm0-236c160 0 242-146 242-341 0-197-82-341-242-341S387-753 387-555c0 195 81 341 241 341zm140-1068c-128 0-194-103-258-103-41 0-63 39-65 97H280c4-169 85-265 208-265 129 0 189 103 257 103 45 0 64-33 68-97h162c-3 169-89 265-207 265" id="ax"/><g id="A"><use transform="matrix(0.01193576388888889,0,0,0.01193576388888889,0,0)" xlink:href="#V"/><use transform="matrix(0.01193576388888889,0,0,0.01193576388888889,16.005859375,0)" xlink:href="#U"/><use transform="matrix(0.01193576388888889,0,0,0.01193576388888889,30.997178819444446,0)" xlink:href="#ab"/><use transform="matrix(0.01193576388888889,0,0,0.01193576388888889,37.62152777777778,0)" xlink:href="#T"/><use transform="matrix(0.01193576388888889,0,0,0.01193576388888889,44.245876736111114,0)" xlink:href="#aa"/><use transform="matrix(0.01193576388888889,0,0,0.01193576388888889,58.62847222222223,0)" xlink:href="#T"/><use transform="matrix(0.01193576388888889,0,0,0.01193576388888889,65.25282118055556,0)" xlink:href="#ag"/><use transform="matrix(0.01193576388888889,0,0,0.01193576388888889,74.32400173611111,0)" xlink:href="#ac"/><use transform="matrix(0.01193576388888889,0,0,0.01193576388888889,88.515625,0)" xlink:href="#Y"/><use transform="matrix(0.01193576388888889,0,0,0.01193576388888889,102.89822048611111,0)" xlink:href="#ax"/><use transform="matrix(0.01193576388888889,0,0,0.01193576388888889,117.88953993055557,0)" xlink:href="#R"/><use transform="matrix(0.01193576388888889,0,0,0.01193576388888889,132.451171875,0)" xlink:href="#ai"/></g><g id="B"><use transform="matrix(0.01193576388888889,0,0,0.01193576388888889,0,0)" xlink:href="#am"/><use transform="matrix(0.01193576388888889,0,0,0.01193576388888889,18.082682291666668,0)" xlink:href="#ab"/><use transform="matrix(0.01193576388888889,0,0,0.01193576388888889,24.707031250000004,0)" xlink:href="#T"/><use transform="matrix(0.01193576388888889,0,0,0.01193576388888889,31.331380208333336,0)" xlink:href="#R"/><use transform="matrix(0.01193576388888889,0,0,0.01193576388888889,45.893012152777786,0)" xlink:href="#aj"/><use transform="matrix(0.01193576388888889,0,0,0.01193576388888889,61.111111111111114,0)" xlink:href="#ag"/><use transform="matrix(0.01193576388888889,0,0,0.01193576388888889,69.82421875000001,0)" xlink:href="#R"/></g></defs></g></svg>
